<svg width="3768" height="834" viewBox="0 0 3768 834" fill="none" xmlns="http://www.w3.org/2000/svg" xmlns:xlink="http://www.w3.org/1999/xlink">
<rect x="1" y="23" width="694" height="178" rx="89" fill="#D9D9D9" fill-opacity="0.55" stroke="white" stroke-width="2"/>
<rect x="1" y="633" width="694" height="178" rx="89" fill="#D9D9D9" fill-opacity="0.55" stroke="white" stroke-width="2"/>
<rect x="697" y="328" width="694" height="178" rx="89" fill="#D9D9D9" fill-opacity="0.55" stroke="white" stroke-width="2"/>
<rect opacity="0.55" x="1537.5" y="1.5" width="693" height="831" rx="106.5" fill="#D9D9D9" stroke="white" stroke-width="3"/>
<rect x="-1" y="1" width="694" height="178" rx="89" transform="matrix(-1 0 0 1 3766 22)" fill="#D9D9D9" fill-opacity="0.55" stroke="white" stroke-width="2"/>
<rect x="-1" y="1" width="694" height="178" rx="89" transform="matrix(-1 0 0 1 3766 632)" fill="#D9D9D9" fill-opacity="0.55" stroke="white" stroke-width="2"/>
<rect x="-1" y="1" width="694" height="178" rx="89" transform="matrix(-1 0 0 1 3070 327)" fill="#D9D9D9" fill-opacity="0.55" stroke="white" stroke-width="2"/>
<path d="M1056 327V194C1056 150.37 1020.63 115 977 115H696" stroke="white" stroke-opacity="0.55" stroke-width="4"/>
<path d="M2712 327V194C2712 150.37 2747.37 115 2791 115H3072" stroke="white" stroke-opacity="0.55" stroke-width="4"/>
<path d="M1056 507V640C1056 683.63 1020.63 719 977 719H696" stroke="white" stroke-opacity="0.55" stroke-width="4"/>
<path d="M2712 507V640C2712 683.63 2747.37 719 2791 719H3072" stroke="white" stroke-opacity="0.55" stroke-width="4"/>
<path d="M1392 417H1536" stroke="white" stroke-opacity="0.55" stroke-width="4"/>
<path d="M2232 417H2376" stroke="white" stroke-opacity="0.55" stroke-width="4"/>
<circle cx="3162" cy="722" r="75" fill="url(#pattern0_677_886)"/>
<circle cx="91" cy="722" r="75" fill="url(#pattern1_677_886)"/>
<circle cx="3162" cy="112" r="75" fill="url(#pattern2_677_886)"/>
<circle cx="91" cy="112" r="75" fill="url(#pattern3_677_886)"/>
<circle cx="786" cy="417" r="75" fill="url(#pattern4_677_886)"/>
<circle cx="2469" cy="417" r="75" fill="url(#pattern5_677_886)"/>
<circle cx="1884.5" cy="306.5" r="200.5" fill="url(#pattern6_677_886)"/>
<path d="M203.091 93.4545V88.4545H238V93.4545H223.364V135H217.727V93.4545H203.091ZM251.335 114V135H245.972V88.4545H251.335V105.545H251.79C252.608 103.742 253.835 102.311 255.472 101.25C257.123 100.174 259.32 99.6364 262.062 99.6364C264.441 99.6364 266.525 100.114 268.312 101.068C270.1 102.008 271.487 103.455 272.472 105.409C273.472 107.348 273.972 109.818 273.972 112.818V135H268.608V113.182C268.608 110.409 267.888 108.265 266.449 106.75C265.025 105.22 263.047 104.455 260.517 104.455C258.759 104.455 257.184 104.826 255.79 105.568C254.411 106.311 253.32 107.394 252.517 108.818C251.729 110.242 251.335 111.97 251.335 114ZM298.42 135.727C295.057 135.727 292.155 134.985 289.716 133.5C287.292 132 285.42 129.909 284.102 127.227C282.799 124.53 282.148 121.394 282.148 117.818C282.148 114.242 282.799 111.091 284.102 108.364C285.42 105.621 287.254 103.485 289.602 101.955C291.966 100.409 294.723 99.6364 297.875 99.6364C299.693 99.6364 301.489 99.9394 303.261 100.545C305.034 101.152 306.648 102.136 308.102 103.5C309.557 104.848 310.716 106.636 311.58 108.864C312.443 111.091 312.875 113.833 312.875 117.091V119.364H285.966V114.727H307.42C307.42 112.758 307.027 111 306.239 109.455C305.466 107.909 304.36 106.689 302.92 105.795C301.496 104.902 299.814 104.455 297.875 104.455C295.739 104.455 293.89 104.985 292.33 106.045C290.784 107.091 289.595 108.455 288.761 110.136C287.928 111.818 287.511 113.621 287.511 115.545V118.636C287.511 121.273 287.966 123.508 288.875 125.341C289.799 127.159 291.08 128.545 292.716 129.5C294.352 130.439 296.254 130.909 298.42 130.909C299.83 130.909 301.102 130.712 302.239 130.318C303.39 129.909 304.383 129.303 305.216 128.5C306.049 127.682 306.693 126.667 307.148 125.455L312.33 126.909C311.784 128.667 310.867 130.212 309.58 131.545C308.292 132.864 306.701 133.894 304.807 134.636C302.913 135.364 300.784 135.727 298.42 135.727ZM354.58 100.091V104.636H335.761V100.091H354.58ZM341.398 135V95.2727C341.398 93.2727 341.867 91.6061 342.807 90.2727C343.746 88.9394 344.966 87.9394 346.466 87.2727C347.966 86.6061 349.549 86.2727 351.216 86.2727C352.534 86.2727 353.61 86.3788 354.443 86.5909C355.277 86.803 355.898 87 356.307 87.1818L354.761 91.8182C354.489 91.7273 354.11 91.6136 353.625 91.4773C353.155 91.3409 352.534 91.2727 351.761 91.2727C349.989 91.2727 348.708 91.7197 347.92 92.6136C347.148 93.5076 346.761 94.8182 346.761 96.5455V135H341.398ZM384.097 120.727V100.091H389.46V135H384.097V129.091H383.733C382.915 130.864 381.642 132.371 379.915 133.614C378.188 134.841 376.006 135.455 373.369 135.455C371.188 135.455 369.248 134.977 367.551 134.023C365.854 133.053 364.521 131.598 363.551 129.659C362.581 127.705 362.097 125.242 362.097 122.273V100.091H367.46V121.909C367.46 124.455 368.172 126.485 369.597 128C371.036 129.515 372.869 130.273 375.097 130.273C376.43 130.273 377.786 129.932 379.165 129.25C380.559 128.568 381.725 127.523 382.665 126.114C383.619 124.705 384.097 122.909 384.097 120.727ZM404.648 88.4545V135H399.284V88.4545H404.648ZM419.835 88.4545V135H414.472V88.4545H419.835ZM453.023 114V135H447.659V100.091H452.841V105.545H453.295C454.114 103.773 455.356 102.348 457.023 101.273C458.689 100.182 460.841 99.6364 463.477 99.6364C465.841 99.6364 467.909 100.121 469.682 101.091C471.455 102.045 472.833 103.5 473.818 105.455C474.803 107.394 475.295 109.848 475.295 112.818V135H469.932V113.182C469.932 110.439 469.22 108.303 467.795 106.773C466.371 105.227 464.417 104.455 461.932 104.455C460.22 104.455 458.689 104.826 457.341 105.568C456.008 106.311 454.955 107.394 454.182 108.818C453.409 110.242 453.023 111.97 453.023 114ZM495.369 135.818C493.157 135.818 491.15 135.402 489.347 134.568C487.544 133.72 486.112 132.5 485.051 130.909C483.991 129.303 483.46 127.364 483.46 125.091C483.46 123.091 483.854 121.47 484.642 120.227C485.43 118.97 486.483 117.985 487.801 117.273C489.119 116.561 490.574 116.03 492.165 115.682C493.771 115.318 495.384 115.03 497.006 114.818C499.127 114.545 500.847 114.341 502.165 114.205C503.498 114.053 504.468 113.803 505.074 113.455C505.695 113.106 506.006 112.5 506.006 111.636V111.455C506.006 109.212 505.392 107.47 504.165 106.227C502.953 104.985 501.112 104.364 498.642 104.364C496.081 104.364 494.074 104.924 492.619 106.045C491.165 107.167 490.142 108.364 489.551 109.636L484.46 107.818C485.369 105.697 486.581 104.045 488.097 102.864C489.627 101.667 491.294 100.833 493.097 100.364C494.915 99.8788 496.703 99.6364 498.46 99.6364C499.581 99.6364 500.869 99.7727 502.324 100.045C503.794 100.303 505.21 100.841 506.574 101.659C507.953 102.477 509.097 103.712 510.006 105.364C510.915 107.015 511.369 109.227 511.369 112V135H506.006V130.273H505.733C505.369 131.03 504.763 131.841 503.915 132.705C503.066 133.568 501.938 134.303 500.528 134.909C499.119 135.515 497.4 135.818 495.369 135.818ZM496.188 131C498.309 131 500.097 130.583 501.551 129.75C503.021 128.917 504.127 127.841 504.869 126.523C505.627 125.205 506.006 123.818 506.006 122.364V117.455C505.778 117.727 505.278 117.977 504.506 118.205C503.748 118.417 502.869 118.606 501.869 118.773C500.884 118.924 499.922 119.061 498.983 119.182C498.059 119.288 497.309 119.379 496.733 119.455C495.339 119.636 494.036 119.932 492.824 120.341C491.627 120.735 490.657 121.333 489.915 122.136C489.188 122.924 488.824 124 488.824 125.364C488.824 127.227 489.513 128.636 490.892 129.591C492.286 130.53 494.051 131 496.188 131ZM521.159 135V100.091H526.341V105.545H526.795C527.523 103.682 528.697 102.235 530.318 101.205C531.939 100.159 533.886 99.6364 536.159 99.6364C538.462 99.6364 540.379 100.159 541.909 101.205C543.455 102.235 544.659 103.682 545.523 105.545H545.886C546.78 103.742 548.121 102.311 549.909 101.25C551.697 100.174 553.841 99.6364 556.341 99.6364C559.462 99.6364 562.015 100.614 564 102.568C565.985 104.508 566.977 107.53 566.977 111.636V135H561.614V111.636C561.614 109.061 560.909 107.22 559.5 106.114C558.091 105.008 556.432 104.455 554.523 104.455C552.068 104.455 550.167 105.197 548.818 106.682C547.47 108.152 546.795 110.015 546.795 112.273V135H541.341V111.091C541.341 109.106 540.697 107.508 539.409 106.295C538.121 105.068 536.462 104.455 534.432 104.455C533.038 104.455 531.735 104.826 530.523 105.568C529.326 106.311 528.356 107.341 527.614 108.659C526.886 109.962 526.523 111.47 526.523 113.182V135H521.159ZM591.42 135.727C588.057 135.727 585.155 134.985 582.716 133.5C580.292 132 578.42 129.909 577.102 127.227C575.799 124.53 575.148 121.394 575.148 117.818C575.148 114.242 575.799 111.091 577.102 108.364C578.42 105.621 580.254 103.485 582.602 101.955C584.966 100.409 587.723 99.6364 590.875 99.6364C592.693 99.6364 594.489 99.9394 596.261 100.545C598.034 101.152 599.648 102.136 601.102 103.5C602.557 104.848 603.716 106.636 604.58 108.864C605.443 111.091 605.875 113.833 605.875 117.091V119.364H578.966V114.727H600.42C600.42 112.758 600.027 111 599.239 109.455C598.466 107.909 597.36 106.689 595.92 105.795C594.496 104.902 592.814 104.455 590.875 104.455C588.739 104.455 586.89 104.985 585.33 106.045C583.784 107.091 582.595 108.455 581.761 110.136C580.928 111.818 580.511 113.621 580.511 115.545V118.636C580.511 121.273 580.966 123.508 581.875 125.341C582.799 127.159 584.08 128.545 585.716 129.5C587.352 130.439 589.254 130.909 591.42 130.909C592.83 130.909 594.102 130.712 595.239 130.318C596.39 129.909 597.383 129.303 598.216 128.5C599.049 127.682 599.693 126.667 600.148 125.455L605.33 126.909C604.784 128.667 603.867 130.212 602.58 131.545C601.292 132.864 599.701 133.894 597.807 134.636C595.913 135.364 593.784 135.727 591.42 135.727Z" fill="white"/>
<path d="M203.091 703.455V698.455H238V703.455H223.364V745H217.727V703.455H203.091ZM251.335 724V745H245.972V698.455H251.335V715.545H251.79C252.608 713.742 253.835 712.311 255.472 711.25C257.123 710.174 259.32 709.636 262.062 709.636C264.441 709.636 266.525 710.114 268.312 711.068C270.1 712.008 271.487 713.455 272.472 715.409C273.472 717.348 273.972 719.818 273.972 722.818V745H268.608V723.182C268.608 720.409 267.888 718.265 266.449 716.75C265.025 715.22 263.047 714.455 260.517 714.455C258.759 714.455 257.184 714.826 255.79 715.568C254.411 716.311 253.32 717.394 252.517 718.818C251.729 720.242 251.335 721.97 251.335 724ZM298.42 745.727C295.057 745.727 292.155 744.985 289.716 743.5C287.292 742 285.42 739.909 284.102 737.227C282.799 734.53 282.148 731.394 282.148 727.818C282.148 724.242 282.799 721.091 284.102 718.364C285.42 715.621 287.254 713.485 289.602 711.955C291.966 710.409 294.723 709.636 297.875 709.636C299.693 709.636 301.489 709.939 303.261 710.545C305.034 711.152 306.648 712.136 308.102 713.5C309.557 714.848 310.716 716.636 311.58 718.864C312.443 721.091 312.875 723.833 312.875 727.091V729.364H285.966V724.727H307.42C307.42 722.758 307.027 721 306.239 719.455C305.466 717.909 304.36 716.689 302.92 715.795C301.496 714.902 299.814 714.455 297.875 714.455C295.739 714.455 293.89 714.985 292.33 716.045C290.784 717.091 289.595 718.455 288.761 720.136C287.928 721.818 287.511 723.621 287.511 725.545V728.636C287.511 731.273 287.966 733.508 288.875 735.341C289.799 737.159 291.08 738.545 292.716 739.5C294.352 740.439 296.254 740.909 298.42 740.909C299.83 740.909 301.102 740.712 302.239 740.318C303.39 739.909 304.383 739.303 305.216 738.5C306.049 737.682 306.693 736.667 307.148 735.455L312.33 736.909C311.784 738.667 310.867 740.212 309.58 741.545C308.292 742.864 306.701 743.894 304.807 744.636C302.913 745.364 300.784 745.727 298.42 745.727ZM354.58 710.091V714.636H335.761V710.091H354.58ZM341.398 745V705.273C341.398 703.273 341.867 701.606 342.807 700.273C343.746 698.939 344.966 697.939 346.466 697.273C347.966 696.606 349.549 696.273 351.216 696.273C352.534 696.273 353.61 696.379 354.443 696.591C355.277 696.803 355.898 697 356.307 697.182L354.761 701.818C354.489 701.727 354.11 701.614 353.625 701.477C353.155 701.341 352.534 701.273 351.761 701.273C349.989 701.273 348.708 701.72 347.92 702.614C347.148 703.508 346.761 704.818 346.761 706.545V745H341.398ZM384.097 730.727V710.091H389.46V745H384.097V739.091H383.733C382.915 740.864 381.642 742.371 379.915 743.614C378.188 744.841 376.006 745.455 373.369 745.455C371.188 745.455 369.248 744.977 367.551 744.023C365.854 743.053 364.521 741.598 363.551 739.659C362.581 737.705 362.097 735.242 362.097 732.273V710.091H367.46V731.909C367.46 734.455 368.172 736.485 369.597 738C371.036 739.515 372.869 740.273 375.097 740.273C376.43 740.273 377.786 739.932 379.165 739.25C380.559 738.568 381.725 737.523 382.665 736.114C383.619 734.705 384.097 732.909 384.097 730.727ZM404.648 698.455V745H399.284V698.455H404.648ZM419.835 698.455V745H414.472V698.455H419.835ZM453.023 724V745H447.659V710.091H452.841V715.545H453.295C454.114 713.773 455.356 712.348 457.023 711.273C458.689 710.182 460.841 709.636 463.477 709.636C465.841 709.636 467.909 710.121 469.682 711.091C471.455 712.045 472.833 713.5 473.818 715.455C474.803 717.394 475.295 719.848 475.295 722.818V745H469.932V723.182C469.932 720.439 469.22 718.303 467.795 716.773C466.371 715.227 464.417 714.455 461.932 714.455C460.22 714.455 458.689 714.826 457.341 715.568C456.008 716.311 454.955 717.394 454.182 718.818C453.409 720.242 453.023 721.97 453.023 724ZM495.369 745.818C493.157 745.818 491.15 745.402 489.347 744.568C487.544 743.72 486.112 742.5 485.051 740.909C483.991 739.303 483.46 737.364 483.46 735.091C483.46 733.091 483.854 731.47 484.642 730.227C485.43 728.97 486.483 727.985 487.801 727.273C489.119 726.561 490.574 726.03 492.165 725.682C493.771 725.318 495.384 725.03 497.006 724.818C499.127 724.545 500.847 724.341 502.165 724.205C503.498 724.053 504.468 723.803 505.074 723.455C505.695 723.106 506.006 722.5 506.006 721.636V721.455C506.006 719.212 505.392 717.47 504.165 716.227C502.953 714.985 501.112 714.364 498.642 714.364C496.081 714.364 494.074 714.924 492.619 716.045C491.165 717.167 490.142 718.364 489.551 719.636L484.46 717.818C485.369 715.697 486.581 714.045 488.097 712.864C489.627 711.667 491.294 710.833 493.097 710.364C494.915 709.879 496.703 709.636 498.46 709.636C499.581 709.636 500.869 709.773 502.324 710.045C503.794 710.303 505.21 710.841 506.574 711.659C507.953 712.477 509.097 713.712 510.006 715.364C510.915 717.015 511.369 719.227 511.369 722V745H506.006V740.273H505.733C505.369 741.03 504.763 741.841 503.915 742.705C503.066 743.568 501.938 744.303 500.528 744.909C499.119 745.515 497.4 745.818 495.369 745.818ZM496.188 741C498.309 741 500.097 740.583 501.551 739.75C503.021 738.917 504.127 737.841 504.869 736.523C505.627 735.205 506.006 733.818 506.006 732.364V727.455C505.778 727.727 505.278 727.977 504.506 728.205C503.748 728.417 502.869 728.606 501.869 728.773C500.884 728.924 499.922 729.061 498.983 729.182C498.059 729.288 497.309 729.379 496.733 729.455C495.339 729.636 494.036 729.932 492.824 730.341C491.627 730.735 490.657 731.333 489.915 732.136C489.188 732.924 488.824 734 488.824 735.364C488.824 737.227 489.513 738.636 490.892 739.591C492.286 740.53 494.051 741 496.188 741ZM521.159 745V710.091H526.341V715.545H526.795C527.523 713.682 528.697 712.235 530.318 711.205C531.939 710.159 533.886 709.636 536.159 709.636C538.462 709.636 540.379 710.159 541.909 711.205C543.455 712.235 544.659 713.682 545.523 715.545H545.886C546.78 713.742 548.121 712.311 549.909 711.25C551.697 710.174 553.841 709.636 556.341 709.636C559.462 709.636 562.015 710.614 564 712.568C565.985 714.508 566.977 717.53 566.977 721.636V745H561.614V721.636C561.614 719.061 560.909 717.22 559.5 716.114C558.091 715.008 556.432 714.455 554.523 714.455C552.068 714.455 550.167 715.197 548.818 716.682C547.47 718.152 546.795 720.015 546.795 722.273V745H541.341V721.091C541.341 719.106 540.697 717.508 539.409 716.295C538.121 715.068 536.462 714.455 534.432 714.455C533.038 714.455 531.735 714.826 530.523 715.568C529.326 716.311 528.356 717.341 527.614 718.659C526.886 719.962 526.523 721.47 526.523 723.182V745H521.159ZM591.42 745.727C588.057 745.727 585.155 744.985 582.716 743.5C580.292 742 578.42 739.909 577.102 737.227C575.799 734.53 575.148 731.394 575.148 727.818C575.148 724.242 575.799 721.091 577.102 718.364C578.42 715.621 580.254 713.485 582.602 711.955C584.966 710.409 587.723 709.636 590.875 709.636C592.693 709.636 594.489 709.939 596.261 710.545C598.034 711.152 599.648 712.136 601.102 713.5C602.557 714.848 603.716 716.636 604.58 718.864C605.443 721.091 605.875 723.833 605.875 727.091V729.364H578.966V724.727H600.42C600.42 722.758 600.027 721 599.239 719.455C598.466 717.909 597.36 716.689 595.92 715.795C594.496 714.902 592.814 714.455 590.875 714.455C588.739 714.455 586.89 714.985 585.33 716.045C583.784 717.091 582.595 718.455 581.761 720.136C580.928 721.818 580.511 723.621 580.511 725.545V728.636C580.511 731.273 580.966 733.508 581.875 735.341C582.799 737.159 584.08 738.545 585.716 739.5C587.352 740.439 589.254 740.909 591.42 740.909C592.83 740.909 594.102 740.712 595.239 740.318C596.39 739.909 597.383 739.303 598.216 738.5C599.049 737.682 599.693 736.667 600.148 735.455L605.33 736.909C604.784 738.667 603.867 740.212 602.58 741.545C601.292 742.864 599.701 743.894 597.807 744.636C595.913 745.364 593.784 745.727 591.42 745.727Z" fill="white"/>
<path d="M892.091 398.455V393.455H927V398.455H912.364V440H906.727V398.455H892.091ZM940.335 419V440H934.972V393.455H940.335V410.545H940.79C941.608 408.742 942.835 407.311 944.472 406.25C946.123 405.174 948.32 404.636 951.062 404.636C953.441 404.636 955.525 405.114 957.312 406.068C959.1 407.008 960.487 408.455 961.472 410.409C962.472 412.348 962.972 414.818 962.972 417.818V440H957.608V418.182C957.608 415.409 956.888 413.265 955.449 411.75C954.025 410.22 952.047 409.455 949.517 409.455C947.759 409.455 946.184 409.826 944.79 410.568C943.411 411.311 942.32 412.394 941.517 413.818C940.729 415.242 940.335 416.97 940.335 419ZM987.42 440.727C984.057 440.727 981.155 439.985 978.716 438.5C976.292 437 974.42 434.909 973.102 432.227C971.799 429.53 971.148 426.394 971.148 422.818C971.148 419.242 971.799 416.091 973.102 413.364C974.42 410.621 976.254 408.485 978.602 406.955C980.966 405.409 983.723 404.636 986.875 404.636C988.693 404.636 990.489 404.939 992.261 405.545C994.034 406.152 995.648 407.136 997.102 408.5C998.557 409.848 999.716 411.636 1000.58 413.864C1001.44 416.091 1001.88 418.833 1001.88 422.091V424.364H974.966V419.727H996.42C996.42 417.758 996.027 416 995.239 414.455C994.466 412.909 993.36 411.689 991.92 410.795C990.496 409.902 988.814 409.455 986.875 409.455C984.739 409.455 982.89 409.985 981.33 411.045C979.784 412.091 978.595 413.455 977.761 415.136C976.928 416.818 976.511 418.621 976.511 420.545V423.636C976.511 426.273 976.966 428.508 977.875 430.341C978.799 432.159 980.08 433.545 981.716 434.5C983.352 435.439 985.254 435.909 987.42 435.909C988.83 435.909 990.102 435.712 991.239 435.318C992.39 434.909 993.383 434.303 994.216 433.5C995.049 432.682 995.693 431.667 996.148 430.455L1001.33 431.909C1000.78 433.667 999.867 435.212 998.58 436.545C997.292 437.864 995.701 438.894 993.807 439.636C991.913 440.364 989.784 440.727 987.42 440.727ZM1043.58 405.091V409.636H1024.76V405.091H1043.58ZM1030.4 440V400.273C1030.4 398.273 1030.87 396.606 1031.81 395.273C1032.75 393.939 1033.97 392.939 1035.47 392.273C1036.97 391.606 1038.55 391.273 1040.22 391.273C1041.53 391.273 1042.61 391.379 1043.44 391.591C1044.28 391.803 1044.9 392 1045.31 392.182L1043.76 396.818C1043.49 396.727 1043.11 396.614 1042.62 396.477C1042.16 396.341 1041.53 396.273 1040.76 396.273C1038.99 396.273 1037.71 396.72 1036.92 397.614C1036.15 398.508 1035.76 399.818 1035.76 401.545V440H1030.4ZM1073.1 425.727V405.091H1078.46V440H1073.1V434.091H1072.73C1071.91 435.864 1070.64 437.371 1068.91 438.614C1067.19 439.841 1065.01 440.455 1062.37 440.455C1060.19 440.455 1058.25 439.977 1056.55 439.023C1054.85 438.053 1053.52 436.598 1052.55 434.659C1051.58 432.705 1051.1 430.242 1051.1 427.273V405.091H1056.46V426.909C1056.46 429.455 1057.17 431.485 1058.6 433C1060.04 434.515 1061.87 435.273 1064.1 435.273C1065.43 435.273 1066.79 434.932 1068.16 434.25C1069.56 433.568 1070.73 432.523 1071.66 431.114C1072.62 429.705 1073.1 427.909 1073.1 425.727ZM1093.65 393.455V440H1088.28V393.455H1093.65ZM1108.84 393.455V440H1103.47V393.455H1108.84ZM1142.02 419V440H1136.66V405.091H1141.84V410.545H1142.3C1143.11 408.773 1144.36 407.348 1146.02 406.273C1147.69 405.182 1149.84 404.636 1152.48 404.636C1154.84 404.636 1156.91 405.121 1158.68 406.091C1160.45 407.045 1161.83 408.5 1162.82 410.455C1163.8 412.394 1164.3 414.848 1164.3 417.818V440H1158.93V418.182C1158.93 415.439 1158.22 413.303 1156.8 411.773C1155.37 410.227 1153.42 409.455 1150.93 409.455C1149.22 409.455 1147.69 409.826 1146.34 410.568C1145.01 411.311 1143.95 412.394 1143.18 413.818C1142.41 415.242 1142.02 416.97 1142.02 419ZM1184.37 440.818C1182.16 440.818 1180.15 440.402 1178.35 439.568C1176.54 438.72 1175.11 437.5 1174.05 435.909C1172.99 434.303 1172.46 432.364 1172.46 430.091C1172.46 428.091 1172.85 426.47 1173.64 425.227C1174.43 423.97 1175.48 422.985 1176.8 422.273C1178.12 421.561 1179.57 421.03 1181.16 420.682C1182.77 420.318 1184.38 420.03 1186.01 419.818C1188.13 419.545 1189.85 419.341 1191.16 419.205C1192.5 419.053 1193.47 418.803 1194.07 418.455C1194.7 418.106 1195.01 417.5 1195.01 416.636V416.455C1195.01 414.212 1194.39 412.47 1193.16 411.227C1191.95 409.985 1190.11 409.364 1187.64 409.364C1185.08 409.364 1183.07 409.924 1181.62 411.045C1180.16 412.167 1179.14 413.364 1178.55 414.636L1173.46 412.818C1174.37 410.697 1175.58 409.045 1177.1 407.864C1178.63 406.667 1180.29 405.833 1182.1 405.364C1183.91 404.879 1185.7 404.636 1187.46 404.636C1188.58 404.636 1189.87 404.773 1191.32 405.045C1192.79 405.303 1194.21 405.841 1195.57 406.659C1196.95 407.477 1198.1 408.712 1199.01 410.364C1199.91 412.015 1200.37 414.227 1200.37 417V440H1195.01V435.273H1194.73C1194.37 436.03 1193.76 436.841 1192.91 437.705C1192.07 438.568 1190.94 439.303 1189.53 439.909C1188.12 440.515 1186.4 440.818 1184.37 440.818ZM1185.19 436C1187.31 436 1189.1 435.583 1190.55 434.75C1192.02 433.917 1193.13 432.841 1193.87 431.523C1194.63 430.205 1195.01 428.818 1195.01 427.364V422.455C1194.78 422.727 1194.28 422.977 1193.51 423.205C1192.75 423.417 1191.87 423.606 1190.87 423.773C1189.88 423.924 1188.92 424.061 1187.98 424.182C1187.06 424.288 1186.31 424.379 1185.73 424.455C1184.34 424.636 1183.04 424.932 1181.82 425.341C1180.63 425.735 1179.66 426.333 1178.91 427.136C1178.19 427.924 1177.82 429 1177.82 430.364C1177.82 432.227 1178.51 433.636 1179.89 434.591C1181.29 435.53 1183.05 436 1185.19 436ZM1210.16 440V405.091H1215.34V410.545H1215.8C1216.52 408.682 1217.7 407.235 1219.32 406.205C1220.94 405.159 1222.89 404.636 1225.16 404.636C1227.46 404.636 1229.38 405.159 1230.91 406.205C1232.45 407.235 1233.66 408.682 1234.52 410.545H1234.89C1235.78 408.742 1237.12 407.311 1238.91 406.25C1240.7 405.174 1242.84 404.636 1245.34 404.636C1248.46 404.636 1251.02 405.614 1253 407.568C1254.98 409.508 1255.98 412.53 1255.98 416.636V440H1250.61V416.636C1250.61 414.061 1249.91 412.22 1248.5 411.114C1247.09 410.008 1245.43 409.455 1243.52 409.455C1241.07 409.455 1239.17 410.197 1237.82 411.682C1236.47 413.152 1235.8 415.015 1235.8 417.273V440H1230.34V416.091C1230.34 414.106 1229.7 412.508 1228.41 411.295C1227.12 410.068 1225.46 409.455 1223.43 409.455C1222.04 409.455 1220.73 409.826 1219.52 410.568C1218.33 411.311 1217.36 412.341 1216.61 413.659C1215.89 414.962 1215.52 416.47 1215.52 418.182V440H1210.16ZM1280.42 440.727C1277.06 440.727 1274.16 439.985 1271.72 438.5C1269.29 437 1267.42 434.909 1266.1 432.227C1264.8 429.53 1264.15 426.394 1264.15 422.818C1264.15 419.242 1264.8 416.091 1266.1 413.364C1267.42 410.621 1269.25 408.485 1271.6 406.955C1273.97 405.409 1276.72 404.636 1279.88 404.636C1281.69 404.636 1283.49 404.939 1285.26 405.545C1287.03 406.152 1288.65 407.136 1290.1 408.5C1291.56 409.848 1292.72 411.636 1293.58 413.864C1294.44 416.091 1294.88 418.833 1294.88 422.091V424.364H1267.97V419.727H1289.42C1289.42 417.758 1289.03 416 1288.24 414.455C1287.47 412.909 1286.36 411.689 1284.92 410.795C1283.5 409.902 1281.81 409.455 1279.88 409.455C1277.74 409.455 1275.89 409.985 1274.33 411.045C1272.78 412.091 1271.59 413.455 1270.76 415.136C1269.93 416.818 1269.51 418.621 1269.51 420.545V423.636C1269.51 426.273 1269.97 428.508 1270.88 430.341C1271.8 432.159 1273.08 433.545 1274.72 434.5C1276.35 435.439 1278.25 435.909 1280.42 435.909C1281.83 435.909 1283.1 435.712 1284.24 435.318C1285.39 434.909 1286.38 434.303 1287.22 433.5C1288.05 432.682 1288.69 431.667 1289.15 430.455L1294.33 431.909C1293.78 433.667 1292.87 435.212 1291.58 436.545C1290.29 437.864 1288.7 438.894 1286.81 439.636C1284.91 440.364 1282.78 440.727 1280.42 440.727Z" fill="white"/>
<path d="M2585.09 398.455V393.455H2620V398.455H2605.36V440H2599.73V398.455H2585.09ZM2633.34 419V440H2627.97V393.455H2633.34V410.545H2633.79C2634.61 408.742 2635.84 407.311 2637.47 406.25C2639.12 405.174 2641.32 404.636 2644.06 404.636C2646.44 404.636 2648.52 405.114 2650.31 406.068C2652.1 407.008 2653.49 408.455 2654.47 410.409C2655.47 412.348 2655.97 414.818 2655.97 417.818V440H2650.61V418.182C2650.61 415.409 2649.89 413.265 2648.45 411.75C2647.02 410.22 2645.05 409.455 2642.52 409.455C2640.76 409.455 2639.18 409.826 2637.79 410.568C2636.41 411.311 2635.32 412.394 2634.52 413.818C2633.73 415.242 2633.34 416.97 2633.34 419ZM2680.42 440.727C2677.06 440.727 2674.16 439.985 2671.72 438.5C2669.29 437 2667.42 434.909 2666.1 432.227C2664.8 429.53 2664.15 426.394 2664.15 422.818C2664.15 419.242 2664.8 416.091 2666.1 413.364C2667.42 410.621 2669.25 408.485 2671.6 406.955C2673.97 405.409 2676.72 404.636 2679.88 404.636C2681.69 404.636 2683.49 404.939 2685.26 405.545C2687.03 406.152 2688.65 407.136 2690.1 408.5C2691.56 409.848 2692.72 411.636 2693.58 413.864C2694.44 416.091 2694.88 418.833 2694.88 422.091V424.364H2667.97V419.727H2689.42C2689.42 417.758 2689.03 416 2688.24 414.455C2687.47 412.909 2686.36 411.689 2684.92 410.795C2683.5 409.902 2681.81 409.455 2679.88 409.455C2677.74 409.455 2675.89 409.985 2674.33 411.045C2672.78 412.091 2671.59 413.455 2670.76 415.136C2669.93 416.818 2669.51 418.621 2669.51 420.545V423.636C2669.51 426.273 2669.97 428.508 2670.88 430.341C2671.8 432.159 2673.08 433.545 2674.72 434.5C2676.35 435.439 2678.25 435.909 2680.42 435.909C2681.83 435.909 2683.1 435.712 2684.24 435.318C2685.39 434.909 2686.38 434.303 2687.22 433.5C2688.05 432.682 2688.69 431.667 2689.15 430.455L2694.33 431.909C2693.78 433.667 2692.87 435.212 2691.58 436.545C2690.29 437.864 2688.7 438.894 2686.81 439.636C2684.91 440.364 2682.78 440.727 2680.42 440.727ZM2736.58 405.091V409.636H2717.76V405.091H2736.58ZM2723.4 440V400.273C2723.4 398.273 2723.87 396.606 2724.81 395.273C2725.75 393.939 2726.97 392.939 2728.47 392.273C2729.97 391.606 2731.55 391.273 2733.22 391.273C2734.53 391.273 2735.61 391.379 2736.44 391.591C2737.28 391.803 2737.9 392 2738.31 392.182L2736.76 396.818C2736.49 396.727 2736.11 396.614 2735.62 396.477C2735.16 396.341 2734.53 396.273 2733.76 396.273C2731.99 396.273 2730.71 396.72 2729.92 397.614C2729.15 398.508 2728.76 399.818 2728.76 401.545V440H2723.4ZM2766.1 425.727V405.091H2771.46V440H2766.1V434.091H2765.73C2764.91 435.864 2763.64 437.371 2761.91 438.614C2760.19 439.841 2758.01 440.455 2755.37 440.455C2753.19 440.455 2751.25 439.977 2749.55 439.023C2747.85 438.053 2746.52 436.598 2745.55 434.659C2744.58 432.705 2744.1 430.242 2744.1 427.273V405.091H2749.46V426.909C2749.46 429.455 2750.17 431.485 2751.6 433C2753.04 434.515 2754.87 435.273 2757.1 435.273C2758.43 435.273 2759.79 434.932 2761.16 434.25C2762.56 433.568 2763.73 432.523 2764.66 431.114C2765.62 429.705 2766.1 427.909 2766.1 425.727ZM2786.65 393.455V440H2781.28V393.455H2786.65ZM2801.84 393.455V440H2796.47V393.455H2801.84ZM2835.02 419V440H2829.66V405.091H2834.84V410.545H2835.3C2836.11 408.773 2837.36 407.348 2839.02 406.273C2840.69 405.182 2842.84 404.636 2845.48 404.636C2847.84 404.636 2849.91 405.121 2851.68 406.091C2853.45 407.045 2854.83 408.5 2855.82 410.455C2856.8 412.394 2857.3 414.848 2857.3 417.818V440H2851.93V418.182C2851.93 415.439 2851.22 413.303 2849.8 411.773C2848.37 410.227 2846.42 409.455 2843.93 409.455C2842.22 409.455 2840.69 409.826 2839.34 410.568C2838.01 411.311 2836.95 412.394 2836.18 413.818C2835.41 415.242 2835.02 416.97 2835.02 419ZM2877.37 440.818C2875.16 440.818 2873.15 440.402 2871.35 439.568C2869.54 438.72 2868.11 437.5 2867.05 435.909C2865.99 434.303 2865.46 432.364 2865.46 430.091C2865.46 428.091 2865.85 426.47 2866.64 425.227C2867.43 423.97 2868.48 422.985 2869.8 422.273C2871.12 421.561 2872.57 421.03 2874.16 420.682C2875.77 420.318 2877.38 420.03 2879.01 419.818C2881.13 419.545 2882.85 419.341 2884.16 419.205C2885.5 419.053 2886.47 418.803 2887.07 418.455C2887.7 418.106 2888.01 417.5 2888.01 416.636V416.455C2888.01 414.212 2887.39 412.47 2886.16 411.227C2884.95 409.985 2883.11 409.364 2880.64 409.364C2878.08 409.364 2876.07 409.924 2874.62 411.045C2873.16 412.167 2872.14 413.364 2871.55 414.636L2866.46 412.818C2867.37 410.697 2868.58 409.045 2870.1 407.864C2871.63 406.667 2873.29 405.833 2875.1 405.364C2876.91 404.879 2878.7 404.636 2880.46 404.636C2881.58 404.636 2882.87 404.773 2884.32 405.045C2885.79 405.303 2887.21 405.841 2888.57 406.659C2889.95 407.477 2891.1 408.712 2892.01 410.364C2892.91 412.015 2893.37 414.227 2893.37 417V440H2888.01V435.273H2887.73C2887.37 436.03 2886.76 436.841 2885.91 437.705C2885.07 438.568 2883.94 439.303 2882.53 439.909C2881.12 440.515 2879.4 440.818 2877.37 440.818ZM2878.19 436C2880.31 436 2882.1 435.583 2883.55 434.75C2885.02 433.917 2886.13 432.841 2886.87 431.523C2887.63 430.205 2888.01 428.818 2888.01 427.364V422.455C2887.78 422.727 2887.28 422.977 2886.51 423.205C2885.75 423.417 2884.87 423.606 2883.87 423.773C2882.88 423.924 2881.92 424.061 2880.98 424.182C2880.06 424.288 2879.31 424.379 2878.73 424.455C2877.34 424.636 2876.04 424.932 2874.82 425.341C2873.63 425.735 2872.66 426.333 2871.91 427.136C2871.19 427.924 2870.82 429 2870.82 430.364C2870.82 432.227 2871.51 433.636 2872.89 434.591C2874.29 435.53 2876.05 436 2878.19 436ZM2903.16 440V405.091H2908.34V410.545H2908.8C2909.52 408.682 2910.7 407.235 2912.32 406.205C2913.94 405.159 2915.89 404.636 2918.16 404.636C2920.46 404.636 2922.38 405.159 2923.91 406.205C2925.45 407.235 2926.66 408.682 2927.52 410.545H2927.89C2928.78 408.742 2930.12 407.311 2931.91 406.25C2933.7 405.174 2935.84 404.636 2938.34 404.636C2941.46 404.636 2944.02 405.614 2946 407.568C2947.98 409.508 2948.98 412.53 2948.98 416.636V440H2943.61V416.636C2943.61 414.061 2942.91 412.22 2941.5 411.114C2940.09 410.008 2938.43 409.455 2936.52 409.455C2934.07 409.455 2932.17 410.197 2930.82 411.682C2929.47 413.152 2928.8 415.015 2928.8 417.273V440H2923.34V416.091C2923.34 414.106 2922.7 412.508 2921.41 411.295C2920.12 410.068 2918.46 409.455 2916.43 409.455C2915.04 409.455 2913.73 409.826 2912.52 410.568C2911.33 411.311 2910.36 412.341 2909.61 413.659C2908.89 414.962 2908.52 416.47 2908.52 418.182V440H2903.16ZM2973.42 440.727C2970.06 440.727 2967.16 439.985 2964.72 438.5C2962.29 437 2960.42 434.909 2959.1 432.227C2957.8 429.53 2957.15 426.394 2957.15 422.818C2957.15 419.242 2957.8 416.091 2959.1 413.364C2960.42 410.621 2962.25 408.485 2964.6 406.955C2966.97 405.409 2969.72 404.636 2972.88 404.636C2974.69 404.636 2976.49 404.939 2978.26 405.545C2980.03 406.152 2981.65 407.136 2983.1 408.5C2984.56 409.848 2985.72 411.636 2986.58 413.864C2987.44 416.091 2987.88 418.833 2987.88 422.091V424.364H2960.97V419.727H2982.42C2982.42 417.758 2982.03 416 2981.24 414.455C2980.47 412.909 2979.36 411.689 2977.92 410.795C2976.5 409.902 2974.81 409.455 2972.88 409.455C2970.74 409.455 2968.89 409.985 2967.33 411.045C2965.78 412.091 2964.59 413.455 2963.76 415.136C2962.93 416.818 2962.51 418.621 2962.51 420.545V423.636C2962.51 426.273 2962.97 428.508 2963.88 430.341C2964.8 432.159 2966.08 433.545 2967.72 434.5C2969.35 435.439 2971.25 435.909 2973.42 435.909C2974.83 435.909 2976.1 435.712 2977.24 435.318C2978.39 434.909 2979.38 434.303 2980.22 433.5C2981.05 432.682 2981.69 431.667 2982.15 430.455L2987.33 431.909C2986.78 433.667 2985.87 435.212 2984.58 436.545C2983.29 437.864 2981.7 438.894 2979.81 439.636C2977.91 440.364 2975.78 440.727 2973.42 440.727Z" fill="white"/>
<path d="M1682.09 641.455V636.455H1717V641.455H1702.36V683H1696.73V641.455H1682.09ZM1730.34 662V683H1724.97V636.455H1730.34V653.545H1730.79C1731.61 651.742 1732.84 650.311 1734.47 649.25C1736.12 648.174 1738.32 647.636 1741.06 647.636C1743.44 647.636 1745.52 648.114 1747.31 649.068C1749.1 650.008 1750.49 651.455 1751.47 653.409C1752.47 655.348 1752.97 657.818 1752.97 660.818V683H1747.61V661.182C1747.61 658.409 1746.89 656.265 1745.45 654.75C1744.02 653.22 1742.05 652.455 1739.52 652.455C1737.76 652.455 1736.18 652.826 1734.79 653.568C1733.41 654.311 1732.32 655.394 1731.52 656.818C1730.73 658.242 1730.34 659.97 1730.34 662ZM1777.42 683.727C1774.06 683.727 1771.16 682.985 1768.72 681.5C1766.29 680 1764.42 677.909 1763.1 675.227C1761.8 672.53 1761.15 669.394 1761.15 665.818C1761.15 662.242 1761.8 659.091 1763.1 656.364C1764.42 653.621 1766.25 651.485 1768.6 649.955C1770.97 648.409 1773.72 647.636 1776.88 647.636C1778.69 647.636 1780.49 647.939 1782.26 648.545C1784.03 649.152 1785.65 650.136 1787.1 651.5C1788.56 652.848 1789.72 654.636 1790.58 656.864C1791.44 659.091 1791.88 661.833 1791.88 665.091V667.364H1764.97V662.727H1786.42C1786.42 660.758 1786.03 659 1785.24 657.455C1784.47 655.909 1783.36 654.689 1781.92 653.795C1780.5 652.902 1778.81 652.455 1776.88 652.455C1774.74 652.455 1772.89 652.985 1771.33 654.045C1769.78 655.091 1768.59 656.455 1767.76 658.136C1766.93 659.818 1766.51 661.621 1766.51 663.545V666.636C1766.51 669.273 1766.97 671.508 1767.88 673.341C1768.8 675.159 1770.08 676.545 1771.72 677.5C1773.35 678.439 1775.25 678.909 1777.42 678.909C1778.83 678.909 1780.1 678.712 1781.24 678.318C1782.39 677.909 1783.38 677.303 1784.22 676.5C1785.05 675.682 1785.69 674.667 1786.15 673.455L1791.33 674.909C1790.78 676.667 1789.87 678.212 1788.58 679.545C1787.29 680.864 1785.7 681.894 1783.81 682.636C1781.91 683.364 1779.78 683.727 1777.42 683.727ZM1833.58 648.091V652.636H1814.76V648.091H1833.58ZM1820.4 683V643.273C1820.4 641.273 1820.87 639.606 1821.81 638.273C1822.75 636.939 1823.97 635.939 1825.47 635.273C1826.97 634.606 1828.55 634.273 1830.22 634.273C1831.53 634.273 1832.61 634.379 1833.44 634.591C1834.28 634.803 1834.9 635 1835.31 635.182L1833.76 639.818C1833.49 639.727 1833.11 639.614 1832.62 639.477C1832.16 639.341 1831.53 639.273 1830.76 639.273C1828.99 639.273 1827.71 639.72 1826.92 640.614C1826.15 641.508 1825.76 642.818 1825.76 644.545V683H1820.4ZM1863.1 668.727V648.091H1868.46V683H1863.1V677.091H1862.73C1861.91 678.864 1860.64 680.371 1858.91 681.614C1857.19 682.841 1855.01 683.455 1852.37 683.455C1850.19 683.455 1848.25 682.977 1846.55 682.023C1844.85 681.053 1843.52 679.598 1842.55 677.659C1841.58 675.705 1841.1 673.242 1841.1 670.273V648.091H1846.46V669.909C1846.46 672.455 1847.17 674.485 1848.6 676C1850.04 677.515 1851.87 678.273 1854.1 678.273C1855.43 678.273 1856.79 677.932 1858.16 677.25C1859.56 676.568 1860.73 675.523 1861.66 674.114C1862.62 672.705 1863.1 670.909 1863.1 668.727ZM1883.65 636.455V683H1878.28V636.455H1883.65ZM1898.84 636.455V683H1893.47V636.455H1898.84ZM1932.02 662V683H1926.66V648.091H1931.84V653.545H1932.3C1933.11 651.773 1934.36 650.348 1936.02 649.273C1937.69 648.182 1939.84 647.636 1942.48 647.636C1944.84 647.636 1946.91 648.121 1948.68 649.091C1950.45 650.045 1951.83 651.5 1952.82 653.455C1953.8 655.394 1954.3 657.848 1954.3 660.818V683H1948.93V661.182C1948.93 658.439 1948.22 656.303 1946.8 654.773C1945.37 653.227 1943.42 652.455 1940.93 652.455C1939.22 652.455 1937.69 652.826 1936.34 653.568C1935.01 654.311 1933.95 655.394 1933.18 656.818C1932.41 658.242 1932.02 659.97 1932.02 662ZM1974.37 683.818C1972.16 683.818 1970.15 683.402 1968.35 682.568C1966.54 681.72 1965.11 680.5 1964.05 678.909C1962.99 677.303 1962.46 675.364 1962.46 673.091C1962.46 671.091 1962.85 669.47 1963.64 668.227C1964.43 666.97 1965.48 665.985 1966.8 665.273C1968.12 664.561 1969.57 664.03 1971.16 663.682C1972.77 663.318 1974.38 663.03 1976.01 662.818C1978.13 662.545 1979.85 662.341 1981.16 662.205C1982.5 662.053 1983.47 661.803 1984.07 661.455C1984.7 661.106 1985.01 660.5 1985.01 659.636V659.455C1985.01 657.212 1984.39 655.47 1983.16 654.227C1981.95 652.985 1980.11 652.364 1977.64 652.364C1975.08 652.364 1973.07 652.924 1971.62 654.045C1970.16 655.167 1969.14 656.364 1968.55 657.636L1963.46 655.818C1964.37 653.697 1965.58 652.045 1967.1 650.864C1968.63 649.667 1970.29 648.833 1972.1 648.364C1973.91 647.879 1975.7 647.636 1977.46 647.636C1978.58 647.636 1979.87 647.773 1981.32 648.045C1982.79 648.303 1984.21 648.841 1985.57 649.659C1986.95 650.477 1988.1 651.712 1989.01 653.364C1989.91 655.015 1990.37 657.227 1990.37 660V683H1985.01V678.273H1984.73C1984.37 679.03 1983.76 679.841 1982.91 680.705C1982.07 681.568 1980.94 682.303 1979.53 682.909C1978.12 683.515 1976.4 683.818 1974.37 683.818ZM1975.19 679C1977.31 679 1979.1 678.583 1980.55 677.75C1982.02 676.917 1983.13 675.841 1983.87 674.523C1984.63 673.205 1985.01 671.818 1985.01 670.364V665.455C1984.78 665.727 1984.28 665.977 1983.51 666.205C1982.75 666.417 1981.87 666.606 1980.87 666.773C1979.88 666.924 1978.92 667.061 1977.98 667.182C1977.06 667.288 1976.31 667.379 1975.73 667.455C1974.34 667.636 1973.04 667.932 1971.82 668.341C1970.63 668.735 1969.66 669.333 1968.91 670.136C1968.19 670.924 1967.82 672 1967.82 673.364C1967.82 675.227 1968.51 676.636 1969.89 677.591C1971.29 678.53 1973.05 679 1975.19 679ZM2000.16 683V648.091H2005.34V653.545H2005.8C2006.52 651.682 2007.7 650.235 2009.32 649.205C2010.94 648.159 2012.89 647.636 2015.16 647.636C2017.46 647.636 2019.38 648.159 2020.91 649.205C2022.45 650.235 2023.66 651.682 2024.52 653.545H2024.89C2025.78 651.742 2027.12 650.311 2028.91 649.25C2030.7 648.174 2032.84 647.636 2035.34 647.636C2038.46 647.636 2041.02 648.614 2043 650.568C2044.98 652.508 2045.98 655.53 2045.98 659.636V683H2040.61V659.636C2040.61 657.061 2039.91 655.22 2038.5 654.114C2037.09 653.008 2035.43 652.455 2033.52 652.455C2031.07 652.455 2029.17 653.197 2027.82 654.682C2026.47 656.152 2025.8 658.015 2025.8 660.273V683H2020.34V659.091C2020.34 657.106 2019.7 655.508 2018.41 654.295C2017.12 653.068 2015.46 652.455 2013.43 652.455C2012.04 652.455 2010.73 652.826 2009.52 653.568C2008.33 654.311 2007.36 655.341 2006.61 656.659C2005.89 657.962 2005.52 659.47 2005.52 661.182V683H2000.16ZM2070.42 683.727C2067.06 683.727 2064.16 682.985 2061.72 681.5C2059.29 680 2057.42 677.909 2056.1 675.227C2054.8 672.53 2054.15 669.394 2054.15 665.818C2054.15 662.242 2054.8 659.091 2056.1 656.364C2057.42 653.621 2059.25 651.485 2061.6 649.955C2063.97 648.409 2066.72 647.636 2069.88 647.636C2071.69 647.636 2073.49 647.939 2075.26 648.545C2077.03 649.152 2078.65 650.136 2080.1 651.5C2081.56 652.848 2082.72 654.636 2083.58 656.864C2084.44 659.091 2084.88 661.833 2084.88 665.091V667.364H2057.97V662.727H2079.42C2079.42 660.758 2079.03 659 2078.24 657.455C2077.47 655.909 2076.36 654.689 2074.92 653.795C2073.5 652.902 2071.81 652.455 2069.88 652.455C2067.74 652.455 2065.89 652.985 2064.33 654.045C2062.78 655.091 2061.59 656.455 2060.76 658.136C2059.93 659.818 2059.51 661.621 2059.51 663.545V666.636C2059.51 669.273 2059.97 671.508 2060.88 673.341C2061.8 675.159 2063.08 676.545 2064.72 677.5C2066.35 678.439 2068.25 678.909 2070.42 678.909C2071.83 678.909 2073.1 678.712 2074.24 678.318C2075.39 677.909 2076.38 677.303 2077.22 676.5C2078.05 675.682 2078.69 674.667 2079.15 673.455L2084.33 674.909C2083.78 676.667 2082.87 678.212 2081.58 679.545C2080.29 680.864 2078.7 681.894 2076.81 682.636C2074.91 683.364 2072.78 683.727 2070.42 683.727Z" fill="white"/>
<path d="M3284.09 93.4545V88.4545H3319V93.4545H3304.36V135H3298.73V93.4545H3284.09ZM3332.34 114V135H3326.97V88.4545H3332.34V105.545H3332.79C3333.61 103.742 3334.84 102.311 3336.47 101.25C3338.12 100.174 3340.32 99.6364 3343.06 99.6364C3345.44 99.6364 3347.52 100.114 3349.31 101.068C3351.1 102.008 3352.49 103.455 3353.47 105.409C3354.47 107.348 3354.97 109.818 3354.97 112.818V135H3349.61V113.182C3349.61 110.409 3348.89 108.265 3347.45 106.75C3346.02 105.22 3344.05 104.455 3341.52 104.455C3339.76 104.455 3338.18 104.826 3336.79 105.568C3335.41 106.311 3334.32 107.394 3333.52 108.818C3332.73 110.242 3332.34 111.97 3332.34 114ZM3379.42 135.727C3376.06 135.727 3373.16 134.985 3370.72 133.5C3368.29 132 3366.42 129.909 3365.1 127.227C3363.8 124.53 3363.15 121.394 3363.15 117.818C3363.15 114.242 3363.8 111.091 3365.1 108.364C3366.42 105.621 3368.25 103.485 3370.6 101.955C3372.97 100.409 3375.72 99.6364 3378.88 99.6364C3380.69 99.6364 3382.49 99.9394 3384.26 100.545C3386.03 101.152 3387.65 102.136 3389.1 103.5C3390.56 104.848 3391.72 106.636 3392.58 108.864C3393.44 111.091 3393.88 113.833 3393.88 117.091V119.364H3366.97V114.727H3388.42C3388.42 112.758 3388.03 111 3387.24 109.455C3386.47 107.909 3385.36 106.689 3383.92 105.795C3382.5 104.902 3380.81 104.455 3378.88 104.455C3376.74 104.455 3374.89 104.985 3373.33 106.045C3371.78 107.091 3370.59 108.455 3369.76 110.136C3368.93 111.818 3368.51 113.621 3368.51 115.545V118.636C3368.51 121.273 3368.97 123.508 3369.88 125.341C3370.8 127.159 3372.08 128.545 3373.72 129.5C3375.35 130.439 3377.25 130.909 3379.42 130.909C3380.83 130.909 3382.1 130.712 3383.24 130.318C3384.39 129.909 3385.38 129.303 3386.22 128.5C3387.05 127.682 3387.69 126.667 3388.15 125.455L3393.33 126.909C3392.78 128.667 3391.87 130.212 3390.58 131.545C3389.29 132.864 3387.7 133.894 3385.81 134.636C3383.91 135.364 3381.78 135.727 3379.42 135.727ZM3435.58 100.091V104.636H3416.76V100.091H3435.58ZM3422.4 135V95.2727C3422.4 93.2727 3422.87 91.6061 3423.81 90.2727C3424.75 88.9394 3425.97 87.9394 3427.47 87.2727C3428.97 86.6061 3430.55 86.2727 3432.22 86.2727C3433.53 86.2727 3434.61 86.3788 3435.44 86.5909C3436.28 86.803 3436.9 87 3437.31 87.1818L3435.76 91.8182C3435.49 91.7273 3435.11 91.6136 3434.62 91.4773C3434.16 91.3409 3433.53 91.2727 3432.76 91.2727C3430.99 91.2727 3429.71 91.7197 3428.92 92.6136C3428.15 93.5076 3427.76 94.8182 3427.76 96.5455V135H3422.4ZM3465.1 120.727V100.091H3470.46V135H3465.1V129.091H3464.73C3463.91 130.864 3462.64 132.371 3460.91 133.614C3459.19 134.841 3457.01 135.455 3454.37 135.455C3452.19 135.455 3450.25 134.977 3448.55 134.023C3446.85 133.053 3445.52 131.598 3444.55 129.659C3443.58 127.705 3443.1 125.242 3443.1 122.273V100.091H3448.46V121.909C3448.46 124.455 3449.17 126.485 3450.6 128C3452.04 129.515 3453.87 130.273 3456.1 130.273C3457.43 130.273 3458.79 129.932 3460.16 129.25C3461.56 128.568 3462.73 127.523 3463.66 126.114C3464.62 124.705 3465.1 122.909 3465.1 120.727ZM3485.65 88.4545V135H3480.28V88.4545H3485.65ZM3500.84 88.4545V135H3495.47V88.4545H3500.84ZM3534.02 114V135H3528.66V100.091H3533.84V105.545H3534.3C3535.11 103.773 3536.36 102.348 3538.02 101.273C3539.69 100.182 3541.84 99.6364 3544.48 99.6364C3546.84 99.6364 3548.91 100.121 3550.68 101.091C3552.45 102.045 3553.83 103.5 3554.82 105.455C3555.8 107.394 3556.3 109.848 3556.3 112.818V135H3550.93V113.182C3550.93 110.439 3550.22 108.303 3548.8 106.773C3547.37 105.227 3545.42 104.455 3542.93 104.455C3541.22 104.455 3539.69 104.826 3538.34 105.568C3537.01 106.311 3535.95 107.394 3535.18 108.818C3534.41 110.242 3534.02 111.97 3534.02 114ZM3576.37 135.818C3574.16 135.818 3572.15 135.402 3570.35 134.568C3568.54 133.72 3567.11 132.5 3566.05 130.909C3564.99 129.303 3564.46 127.364 3564.46 125.091C3564.46 123.091 3564.85 121.47 3565.64 120.227C3566.43 118.97 3567.48 117.985 3568.8 117.273C3570.12 116.561 3571.57 116.03 3573.16 115.682C3574.77 115.318 3576.38 115.03 3578.01 114.818C3580.13 114.545 3581.85 114.341 3583.16 114.205C3584.5 114.053 3585.47 113.803 3586.07 113.455C3586.7 113.106 3587.01 112.5 3587.01 111.636V111.455C3587.01 109.212 3586.39 107.47 3585.16 106.227C3583.95 104.985 3582.11 104.364 3579.64 104.364C3577.08 104.364 3575.07 104.924 3573.62 106.045C3572.16 107.167 3571.14 108.364 3570.55 109.636L3565.46 107.818C3566.37 105.697 3567.58 104.045 3569.1 102.864C3570.63 101.667 3572.29 100.833 3574.1 100.364C3575.91 99.8788 3577.7 99.6364 3579.46 99.6364C3580.58 99.6364 3581.87 99.7727 3583.32 100.045C3584.79 100.303 3586.21 100.841 3587.57 101.659C3588.95 102.477 3590.1 103.712 3591.01 105.364C3591.91 107.015 3592.37 109.227 3592.37 112V135H3587.01V130.273H3586.73C3586.37 131.03 3585.76 131.841 3584.91 132.705C3584.07 133.568 3582.94 134.303 3581.53 134.909C3580.12 135.515 3578.4 135.818 3576.37 135.818ZM3577.19 131C3579.31 131 3581.1 130.583 3582.55 129.75C3584.02 128.917 3585.13 127.841 3585.87 126.523C3586.63 125.205 3587.01 123.818 3587.01 122.364V117.455C3586.78 117.727 3586.28 117.977 3585.51 118.205C3584.75 118.417 3583.87 118.606 3582.87 118.773C3581.88 118.924 3580.92 119.061 3579.98 119.182C3579.06 119.288 3578.31 119.379 3577.73 119.455C3576.34 119.636 3575.04 119.932 3573.82 120.341C3572.63 120.735 3571.66 121.333 3570.91 122.136C3570.19 122.924 3569.82 124 3569.82 125.364C3569.82 127.227 3570.51 128.636 3571.89 129.591C3573.29 130.53 3575.05 131 3577.19 131ZM3602.16 135V100.091H3607.34V105.545H3607.8C3608.52 103.682 3609.7 102.235 3611.32 101.205C3612.94 100.159 3614.89 99.6364 3617.16 99.6364C3619.46 99.6364 3621.38 100.159 3622.91 101.205C3624.45 102.235 3625.66 103.682 3626.52 105.545H3626.89C3627.78 103.742 3629.12 102.311 3630.91 101.25C3632.7 100.174 3634.84 99.6364 3637.34 99.6364C3640.46 99.6364 3643.02 100.614 3645 102.568C3646.98 104.508 3647.98 107.53 3647.98 111.636V135H3642.61V111.636C3642.61 109.061 3641.91 107.22 3640.5 106.114C3639.09 105.008 3637.43 104.455 3635.52 104.455C3633.07 104.455 3631.17 105.197 3629.82 106.682C3628.47 108.152 3627.8 110.015 3627.8 112.273V135H3622.34V111.091C3622.34 109.106 3621.7 107.508 3620.41 106.295C3619.12 105.068 3617.46 104.455 3615.43 104.455C3614.04 104.455 3612.73 104.826 3611.52 105.568C3610.33 106.311 3609.36 107.341 3608.61 108.659C3607.89 109.962 3607.52 111.47 3607.52 113.182V135H3602.16ZM3672.42 135.727C3669.06 135.727 3666.16 134.985 3663.72 133.5C3661.29 132 3659.42 129.909 3658.1 127.227C3656.8 124.53 3656.15 121.394 3656.15 117.818C3656.15 114.242 3656.8 111.091 3658.1 108.364C3659.42 105.621 3661.25 103.485 3663.6 101.955C3665.97 100.409 3668.72 99.6364 3671.88 99.6364C3673.69 99.6364 3675.49 99.9394 3677.26 100.545C3679.03 101.152 3680.65 102.136 3682.1 103.5C3683.56 104.848 3684.72 106.636 3685.58 108.864C3686.44 111.091 3686.88 113.833 3686.88 117.091V119.364H3659.97V114.727H3681.42C3681.42 112.758 3681.03 111 3680.24 109.455C3679.47 107.909 3678.36 106.689 3676.92 105.795C3675.5 104.902 3673.81 104.455 3671.88 104.455C3669.74 104.455 3667.89 104.985 3666.33 106.045C3664.78 107.091 3663.59 108.455 3662.76 110.136C3661.93 111.818 3661.51 113.621 3661.51 115.545V118.636C3661.51 121.273 3661.97 123.508 3662.88 125.341C3663.8 127.159 3665.08 128.545 3666.72 129.5C3668.35 130.439 3670.25 130.909 3672.42 130.909C3673.83 130.909 3675.1 130.712 3676.24 130.318C3677.39 129.909 3678.38 129.303 3679.22 128.5C3680.05 127.682 3680.69 126.667 3681.15 125.455L3686.33 126.909C3685.78 128.667 3684.87 130.212 3683.58 131.545C3682.29 132.864 3680.7 133.894 3678.81 134.636C3676.91 135.364 3674.78 135.727 3672.42 135.727Z" fill="white"/>
<path d="M3284.09 703.455V698.455H3319V703.455H3304.36V745H3298.73V703.455H3284.09ZM3332.34 724V745H3326.97V698.455H3332.34V715.545H3332.79C3333.61 713.742 3334.84 712.311 3336.47 711.25C3338.12 710.174 3340.32 709.636 3343.06 709.636C3345.44 709.636 3347.52 710.114 3349.31 711.068C3351.1 712.008 3352.49 713.455 3353.47 715.409C3354.47 717.348 3354.97 719.818 3354.97 722.818V745H3349.61V723.182C3349.61 720.409 3348.89 718.265 3347.45 716.75C3346.02 715.22 3344.05 714.455 3341.52 714.455C3339.76 714.455 3338.18 714.826 3336.79 715.568C3335.41 716.311 3334.32 717.394 3333.52 718.818C3332.73 720.242 3332.34 721.97 3332.34 724ZM3379.42 745.727C3376.06 745.727 3373.16 744.985 3370.72 743.5C3368.29 742 3366.42 739.909 3365.1 737.227C3363.8 734.53 3363.15 731.394 3363.15 727.818C3363.15 724.242 3363.8 721.091 3365.1 718.364C3366.42 715.621 3368.25 713.485 3370.6 711.955C3372.97 710.409 3375.72 709.636 3378.88 709.636C3380.69 709.636 3382.49 709.939 3384.26 710.545C3386.03 711.152 3387.65 712.136 3389.1 713.5C3390.56 714.848 3391.72 716.636 3392.58 718.864C3393.44 721.091 3393.88 723.833 3393.88 727.091V729.364H3366.97V724.727H3388.42C3388.42 722.758 3388.03 721 3387.24 719.455C3386.47 717.909 3385.36 716.689 3383.92 715.795C3382.5 714.902 3380.81 714.455 3378.88 714.455C3376.74 714.455 3374.89 714.985 3373.33 716.045C3371.78 717.091 3370.59 718.455 3369.76 720.136C3368.93 721.818 3368.51 723.621 3368.51 725.545V728.636C3368.51 731.273 3368.97 733.508 3369.88 735.341C3370.8 737.159 3372.08 738.545 3373.72 739.5C3375.35 740.439 3377.25 740.909 3379.42 740.909C3380.83 740.909 3382.1 740.712 3383.24 740.318C3384.39 739.909 3385.38 739.303 3386.22 738.5C3387.05 737.682 3387.69 736.667 3388.15 735.455L3393.33 736.909C3392.78 738.667 3391.87 740.212 3390.58 741.545C3389.29 742.864 3387.7 743.894 3385.81 744.636C3383.91 745.364 3381.78 745.727 3379.42 745.727ZM3435.58 710.091V714.636H3416.76V710.091H3435.58ZM3422.4 745V705.273C3422.4 703.273 3422.87 701.606 3423.81 700.273C3424.75 698.939 3425.97 697.939 3427.47 697.273C3428.97 696.606 3430.55 696.273 3432.22 696.273C3433.53 696.273 3434.61 696.379 3435.44 696.591C3436.28 696.803 3436.9 697 3437.31 697.182L3435.76 701.818C3435.49 701.727 3435.11 701.614 3434.62 701.477C3434.16 701.341 3433.53 701.273 3432.76 701.273C3430.99 701.273 3429.71 701.72 3428.92 702.614C3428.15 703.508 3427.76 704.818 3427.76 706.545V745H3422.4ZM3465.1 730.727V710.091H3470.46V745H3465.1V739.091H3464.73C3463.91 740.864 3462.64 742.371 3460.91 743.614C3459.19 744.841 3457.01 745.455 3454.37 745.455C3452.19 745.455 3450.25 744.977 3448.55 744.023C3446.85 743.053 3445.52 741.598 3444.55 739.659C3443.58 737.705 3443.1 735.242 3443.1 732.273V710.091H3448.46V731.909C3448.46 734.455 3449.17 736.485 3450.6 738C3452.04 739.515 3453.87 740.273 3456.1 740.273C3457.43 740.273 3458.79 739.932 3460.16 739.25C3461.56 738.568 3462.73 737.523 3463.66 736.114C3464.62 734.705 3465.1 732.909 3465.1 730.727ZM3485.65 698.455V745H3480.28V698.455H3485.65ZM3500.84 698.455V745H3495.47V698.455H3500.84ZM3534.02 724V745H3528.66V710.091H3533.84V715.545H3534.3C3535.11 713.773 3536.36 712.348 3538.02 711.273C3539.69 710.182 3541.84 709.636 3544.48 709.636C3546.84 709.636 3548.91 710.121 3550.68 711.091C3552.45 712.045 3553.83 713.5 3554.82 715.455C3555.8 717.394 3556.3 719.848 3556.3 722.818V745H3550.93V723.182C3550.93 720.439 3550.22 718.303 3548.8 716.773C3547.37 715.227 3545.42 714.455 3542.93 714.455C3541.22 714.455 3539.69 714.826 3538.34 715.568C3537.01 716.311 3535.95 717.394 3535.18 718.818C3534.41 720.242 3534.02 721.97 3534.02 724ZM3576.37 745.818C3574.16 745.818 3572.15 745.402 3570.35 744.568C3568.54 743.72 3567.11 742.5 3566.05 740.909C3564.99 739.303 3564.46 737.364 3564.46 735.091C3564.46 733.091 3564.85 731.47 3565.64 730.227C3566.43 728.97 3567.48 727.985 3568.8 727.273C3570.12 726.561 3571.57 726.03 3573.16 725.682C3574.77 725.318 3576.38 725.03 3578.01 724.818C3580.13 724.545 3581.85 724.341 3583.16 724.205C3584.5 724.053 3585.47 723.803 3586.07 723.455C3586.7 723.106 3587.01 722.5 3587.01 721.636V721.455C3587.01 719.212 3586.39 717.47 3585.16 716.227C3583.95 714.985 3582.11 714.364 3579.64 714.364C3577.08 714.364 3575.07 714.924 3573.62 716.045C3572.16 717.167 3571.14 718.364 3570.55 719.636L3565.46 717.818C3566.37 715.697 3567.58 714.045 3569.1 712.864C3570.63 711.667 3572.29 710.833 3574.1 710.364C3575.91 709.879 3577.7 709.636 3579.46 709.636C3580.58 709.636 3581.87 709.773 3583.32 710.045C3584.79 710.303 3586.21 710.841 3587.57 711.659C3588.95 712.477 3590.1 713.712 3591.01 715.364C3591.91 717.015 3592.37 719.227 3592.37 722V745H3587.01V740.273H3586.73C3586.37 741.03 3585.76 741.841 3584.91 742.705C3584.07 743.568 3582.94 744.303 3581.53 744.909C3580.12 745.515 3578.4 745.818 3576.37 745.818ZM3577.19 741C3579.31 741 3581.1 740.583 3582.55 739.75C3584.02 738.917 3585.13 737.841 3585.87 736.523C3586.63 735.205 3587.01 733.818 3587.01 732.364V727.455C3586.78 727.727 3586.28 727.977 3585.51 728.205C3584.75 728.417 3583.87 728.606 3582.87 728.773C3581.88 728.924 3580.92 729.061 3579.98 729.182C3579.06 729.288 3578.31 729.379 3577.73 729.455C3576.34 729.636 3575.04 729.932 3573.82 730.341C3572.63 730.735 3571.66 731.333 3570.91 732.136C3570.19 732.924 3569.82 734 3569.82 735.364C3569.82 737.227 3570.51 738.636 3571.89 739.591C3573.29 740.53 3575.05 741 3577.19 741ZM3602.16 745V710.091H3607.34V715.545H3607.8C3608.52 713.682 3609.7 712.235 3611.32 711.205C3612.94 710.159 3614.89 709.636 3617.16 709.636C3619.46 709.636 3621.38 710.159 3622.91 711.205C3624.45 712.235 3625.66 713.682 3626.52 715.545H3626.89C3627.78 713.742 3629.12 712.311 3630.91 711.25C3632.7 710.174 3634.84 709.636 3637.34 709.636C3640.46 709.636 3643.02 710.614 3645 712.568C3646.98 714.508 3647.98 717.53 3647.98 721.636V745H3642.61V721.636C3642.61 719.061 3641.91 717.22 3640.5 716.114C3639.09 715.008 3637.43 714.455 3635.52 714.455C3633.07 714.455 3631.17 715.197 3629.82 716.682C3628.47 718.152 3627.8 720.015 3627.8 722.273V745H3622.34V721.091C3622.34 719.106 3621.7 717.508 3620.41 716.295C3619.12 715.068 3617.46 714.455 3615.43 714.455C3614.04 714.455 3612.73 714.826 3611.52 715.568C3610.33 716.311 3609.36 717.341 3608.61 718.659C3607.89 719.962 3607.52 721.47 3607.52 723.182V745H3602.16ZM3672.42 745.727C3669.06 745.727 3666.16 744.985 3663.72 743.5C3661.29 742 3659.42 739.909 3658.1 737.227C3656.8 734.53 3656.15 731.394 3656.15 727.818C3656.15 724.242 3656.8 721.091 3658.1 718.364C3659.42 715.621 3661.25 713.485 3663.6 711.955C3665.97 710.409 3668.72 709.636 3671.88 709.636C3673.69 709.636 3675.49 709.939 3677.26 710.545C3679.03 711.152 3680.65 712.136 3682.1 713.5C3683.56 714.848 3684.72 716.636 3685.58 718.864C3686.44 721.091 3686.88 723.833 3686.88 727.091V729.364H3659.97V724.727H3681.42C3681.42 722.758 3681.03 721 3680.24 719.455C3679.47 717.909 3678.36 716.689 3676.92 715.795C3675.5 714.902 3673.81 714.455 3671.88 714.455C3669.74 714.455 3667.89 714.985 3666.33 716.045C3664.78 717.091 3663.59 718.455 3662.76 720.136C3661.93 721.818 3661.51 723.621 3661.51 725.545V728.636C3661.51 731.273 3661.97 733.508 3662.88 735.341C3663.8 737.159 3665.08 738.545 3666.72 739.5C3668.35 740.439 3670.25 740.909 3672.42 740.909C3673.83 740.909 3675.1 740.712 3676.24 740.318C3677.39 739.909 3678.38 739.303 3679.22 738.5C3680.05 737.682 3680.69 736.667 3681.15 735.455L3686.33 736.909C3685.78 738.667 3684.87 740.212 3683.58 741.545C3682.29 742.864 3680.7 743.894 3678.81 744.636C3676.91 745.364 3674.78 745.727 3672.42 745.727Z" fill="white"/>
<defs>
<pattern id="pattern0_677_886" patternContentUnits="objectBoundingBox" width="1" height="1">
<use xlink:href="#image0_677_886" transform="scale(0.00133333)"/>
</pattern>
<pattern id="pattern1_677_886" patternContentUnits="objectBoundingBox" width="1" height="1">
<use xlink:href="#image1_677_886" transform="scale(0.00133333)"/>
</pattern>
<pattern id="pattern2_677_886" patternContentUnits="objectBoundingBox" width="1" height="1">
<use xlink:href="#image2_677_886" transform="scale(0.00133333)"/>
</pattern>
<pattern id="pattern3_677_886" patternContentUnits="objectBoundingBox" width="1" height="1">
<use xlink:href="#image3_677_886" transform="scale(0.00133333)"/>
</pattern>
<pattern id="pattern4_677_886" patternContentUnits="objectBoundingBox" width="1" height="1">
<use xlink:href="#image3_677_886" transform="scale(0.00133333)"/>
</pattern>
<pattern id="pattern5_677_886" patternContentUnits="objectBoundingBox" width="1" height="1">
<use xlink:href="#image2_677_886" transform="scale(0.00133333)"/>
</pattern>
<pattern id="pattern6_677_886" patternContentUnits="objectBoundingBox" width="1" height="1">
<use xlink:href="#image2_677_886" transform="scale(0.00133333)"/>
</pattern>

</defs>
</svg>
