<svg width="331" height="343" viewBox="0 0 331 343" fill="none" xmlns="http://www.w3.org/2000/svg">
<path d="M162.814 4.93332C161.347 9.46665 160.68 9.86665 156.28 9.86665H151.347L155.214 12.9333C158.547 15.6 158.947 16.5333 158.014 20.4L157.08 24.8L160.68 22.4C164.014 20.2667 164.414 20.2667 168.147 22.4C172.414 24.9333 172.547 24.8 170.814 20.1333C169.747 17.4667 170.147 16.2667 172.947 13.7333L176.28 10.5333L171.747 9.86665C168.147 9.33332 167.08 8.39999 165.88 4.66665L164.414 -1.35005e-05L162.814 4.93332Z" fill="black"/>
<path d="M83.9786 31.586C83.2139 33.9624 82.8663 34.172 80.5722 34.172H78L80.016 35.7796C81.754 37.1774 81.9626 37.6667 81.4759 39.6935L80.9893 42L82.8663 40.7419C84.6043 39.6237 84.8128 39.6237 86.7594 40.7419C88.984 42.0699 89.0535 42 88.1497 39.5538C87.5936 38.1559 87.8021 37.5269 89.262 36.1989L91 34.5215L88.6364 34.172C86.7594 33.8925 86.2032 33.4032 85.5775 31.4462L84.8128 29L83.9786 31.586Z" fill="black"/>
<path d="M238.979 31.586C238.214 33.9624 237.866 34.172 235.572 34.172H233L235.016 35.7796C236.754 37.1774 236.963 37.6667 236.476 39.6935L235.989 42L237.866 40.7419C239.604 39.6237 239.813 39.6237 241.759 40.7419C243.984 42.0699 244.053 42 243.15 39.5538C242.594 38.1559 242.802 37.5269 244.262 36.1989L246 34.5215L243.636 34.172C241.759 33.8925 241.203 33.4032 240.578 31.4462L239.813 29L238.979 31.586Z" fill="black"/>
<path d="M82.2804 33.3333C80.4137 35.3333 81.4804 37.8666 84.1471 37.8666C86.0137 37.8666 86.6804 37.2 86.4137 35.6C86.0137 33.2 83.7471 32 82.2804 33.3333Z" fill="black"/>
<path d="M62.6804 55.8666C39.3471 62.3999 19.7471 78.9333 8.81375 101.067C-5.05292 129.2 -2.51958 159.867 16.1471 187.467C27.3471 204.133 49.0804 222.267 67.8804 230.667C91.4804 241.2 114.414 240.8 136.547 229.6C147.214 224.133 154.014 224.133 161.614 229.333C164.68 231.467 175.614 241.467 186.014 251.6C196.28 261.733 205.747 270.667 206.947 271.333C210.28 273.2 219.614 272.8 223.88 270.667C227.48 268.667 241.614 252.133 244.947 245.867C247.347 241.333 247.08 234.533 244.547 229.067C242.814 225.6 238.947 222.533 226.814 215.333C203.88 201.733 188.547 190.4 186.147 185.2C183.614 179.867 183.48 176.8 186.014 166.533C188.547 156.133 188.547 140.4 186.014 130.8C178.014 99.8666 147.48 70.3999 110.68 57.8666C99.0804 53.9999 73.4804 52.9333 62.6804 55.8666ZM102.68 67.9999C127.747 73.8666 158.28 97.6 169.214 119.733C177.347 136.267 178.547 149.067 173.88 167.733C171.08 178.533 172.414 187.067 177.88 194.267C182.814 200.667 198.147 212 219.08 224.533C237.614 235.6 238.014 236.667 228.014 249.2C221.347 257.467 216.68 261.867 214.28 261.867C213.747 261.867 203.347 252.4 191.347 240.667C166.947 217.2 161.88 213.867 149.747 213.867C143.48 213.867 139.88 214.8 131.08 219.2C116.547 226.133 105.48 228.267 93.0804 226.133C59.8804 220.4 24.6804 189.733 14.5471 157.867C3.34708 122.533 25.0804 81.3333 61.3471 68.9333C71.8804 65.3333 89.6137 64.9333 102.68 67.9999Z" fill="black"/>
<path d="M67.6138 97.8667C60.5471 99.7334 56.0138 102.267 51.0804 107.467C44.9471 113.867 42.6804 120.267 42.6804 131.6C42.6804 140.4 43.0804 142.133 46.8138 147.6C60.8138 168.8 90.8138 168 103.614 146.133C108.414 138 108.68 124.133 104.414 115.867C97.2138 102 81.7471 94.4 67.6138 97.8667ZM89.4804 116.4C101.214 128.533 94.6804 147.467 77.7471 150.667C64.2804 153.2 51.0804 139.067 54.6804 125.867C59.0804 109.333 77.8804 104.133 89.4804 116.4Z" fill="#CC207C"/>
<path d="M150.814 115.067C142.947 130.533 140.68 150 144.68 166.533C147.214 177.2 147.08 181.733 144.28 186.533C141.747 190.533 117.08 208.267 102.014 216.667L94.0138 221.2L100.68 221.6C112.947 222.4 120.014 219.867 135.347 209.067C157.88 193.067 160.947 186.4 155.88 164.133C152.547 149.333 153.214 140.133 158.68 126.133L162.414 116.533L159.614 112.8C158.147 110.8 156.414 108.667 155.88 108C155.347 107.333 153.08 110.533 150.814 115.067Z" fill="#CC207C"/>
<path d="M172.814 214.933C171.347 217.2 179.614 223.067 192.68 228.933C208.68 236.267 215.88 238.133 224.68 237.6L231.347 237.2L219.347 230.4C193.347 215.6 189.48 213.867 181.214 213.867C176.947 213.867 173.214 214.4 172.814 214.933Z" fill="#CC207C"/>
<path d="M225.347 56.6666C211.48 60.2666 196.014 68 183.214 77.6C168.947 88.4 168.414 88.9333 171.214 93.2C174.68 98.4 176.68 98.5333 182.014 93.7333C202.414 75.0666 224.814 65.6 248.014 65.4666C261.48 65.4666 271.214 68.1333 282.147 74.6666C298.014 84.1333 309.48 98.2666 315.48 116C325.614 145.6 314.414 177.333 285.08 202.533C276.147 210.267 260.28 219.867 252.947 222.133C249.214 223.2 248.147 224.133 248.68 225.733C249.214 226.933 249.88 229.467 250.28 231.467L250.947 235.067L257.48 232.667C282.814 222.933 307.214 201.733 320.414 177.867C333.347 154.267 333.88 125.333 321.747 100.667C315.08 87.0666 296.68 68.4 283.88 62.1333C266.147 53.6 244.68 51.6 225.347 56.6666Z" fill="#CC207C"/>
<path d="M239.347 97.7333C224.014 101.733 214.28 114.533 214.414 130.667C214.547 140.933 216.947 146.933 224.014 153.6C237.88 167.2 259.747 165.867 272.68 150.933C281.614 140.4 282.014 122.4 273.48 110.667C266.414 100.667 250.547 94.8 239.347 97.7333ZM255.747 111.733C261.347 114.667 264.947 119.333 266.68 125.733C272.014 145.733 246.68 158.933 232.014 144C223.614 135.2 225.48 119.867 235.88 112.933C241.08 109.333 250.147 108.8 255.747 111.733Z" fill="black"/>
<path d="M135.347 244.533C127.347 252.667 119.614 260 118.28 260.667C114.547 262.8 111.747 261.067 104.68 251.867C101.08 247.067 97.0804 243.2 95.8804 243.2C94.6804 243.2 91.747 242.8 89.4804 242.4C86.147 241.733 85.347 242 85.347 243.733C85.347 246.933 103.214 269.067 107.347 270.933C111.347 272.8 121.214 273.067 123.747 271.333C124.68 270.8 133.48 262.4 143.214 252.8C159.347 236.933 160.814 235.2 158.814 233.333C157.614 232.267 155.214 231.067 153.347 230.533C150.414 229.867 148.147 231.733 135.347 244.533Z" fill="#CC207C"/>
<path d="M109.4 295.467L99.6666 296V318.533V341.2H109.667H119.667V317.867C119.667 305.067 119.533 294.667 119.4 294.8C119.133 294.933 114.6 295.333 109.4 295.467Z" fill="url(#paint0_linear_37_54)"/>
<path d="M191.667 297.467C187.8 299.467 185.4 301.733 184.867 303.867C183.4 309.067 183.533 330 185 333.867C187.8 341.067 204.467 344.933 213.4 340.4C216.2 338.8 217.667 338.667 218.067 339.733C218.333 340.533 221.4 341.2 225.133 341.2H231.667V329.2V317.2H219.667C209 317.2 207.667 317.467 207.667 319.6C207.667 320.933 208.867 322.933 210.333 324.267C214.733 328 213.4 334.533 208.2 334.533C204.067 334.533 203.267 331.2 203.8 315.867C204.2 307.333 204.867 303.467 206.2 302.667C209.4 300.667 211.667 302.533 211.667 307.333V311.867H221.667H231.667V307.467C231.667 299.067 223 294.533 207.133 294.533C199.8 294.533 196.2 295.2 191.667 297.467Z" fill="url(#paint1_linear_37_54)"/>
<path d="M249.4 296C241.4 298.4 239.667 302.267 239.667 319.2C239.667 332.267 239.933 334.4 242.2 336.4C246.333 340.133 254.2 342.4 263 342.533C273.133 342.533 280.467 340.533 284.467 336.533C287.4 333.6 287.667 332.267 287.667 318.8C287.667 302 286.2 298.8 277.267 296.133C271.133 294.267 255.533 294.267 249.4 296ZM267.4 315.733C268.2 330.933 267.267 334.8 263.267 334.267C260.467 333.867 260.333 333.333 260.333 318.8C260.333 306.933 260.733 303.467 262.333 302.533C265.667 300.4 266.867 303.333 267.4 315.733Z" fill="url(#paint2_linear_37_54)"/>
<path d="M49 318.4V341.2H59H69V332V322.933L78.3333 322.267C90.7333 321.333 93 319.333 93 309.2C93 297.333 91.6667 296.667 68.2 296.133L49 295.733V318.4ZM75.4 308.8C75.8 314.133 75.5333 314.533 72.4667 314.533C69.2667 314.533 69 314.133 69 308.4C69 302.933 69.2667 302.4 72.0667 302.8C74.4667 303.067 75.1333 304.133 75.4 308.8Z" fill="url(#paint3_linear_37_54)"/>
<path d="M129 318.533V341.2H137.667H146.2L146.6 331.467L147 321.867L152.067 331.467L157 341.2H166.333H175.667V318.533V295.867H167H158.467L158.067 305.467L157.667 315.2L152.333 305.867L146.867 296.533L137.933 296.133L129 295.733V318.533Z" fill="url(#paint4_linear_37_54)"/>
<defs>
<linearGradient id="paint0_linear_37_54" x1="98.3258" y1="342.682" x2="122.433" y2="342.251" gradientUnits="userSpaceOnUse">
<stop stop-color="#99185D"/>
<stop offset="0.435" stop-color="#AF1B6A"/>
<stop offset="1" stop-color="#CC207C"/>
</linearGradient>
<linearGradient id="paint1_linear_37_54" x1="180.624" y1="343.876" x2="238.202" y2="341.484" gradientUnits="userSpaceOnUse">
<stop stop-color="#99185D"/>
<stop offset="0.435" stop-color="#AF1B6A"/>
<stop offset="1" stop-color="#CC207C"/>
</linearGradient>
<linearGradient id="paint2_linear_37_54" x1="236.449" y1="344.061" x2="294.224" y2="341.652" gradientUnits="userSpaceOnUse">
<stop stop-color="#99185D"/>
<stop offset="0.435" stop-color="#AF1B6A"/>
<stop offset="1" stop-color="#CC207C"/>
</linearGradient>
<linearGradient id="paint3_linear_37_54" x1="46.0503" y1="342.652" x2="99.0176" y2="340.523" gradientUnits="userSpaceOnUse">
<stop stop-color="#99185D"/>
<stop offset="0.435" stop-color="#AF1B6A"/>
<stop offset="1" stop-color="#CC207C"/>
</linearGradient>
<linearGradient id="paint4_linear_37_54" x1="125.872" y1="342.652" x2="182.038" y2="340.258" gradientUnits="userSpaceOnUse">
<stop stop-color="#99185D"/>
<stop offset="0.435" stop-color="#AF1B6A"/>
<stop offset="1" stop-color="#CC207C"/>
</linearGradient>
</defs>
</svg>
