<svg width="225" height="199" viewBox="0 0 225 199" fill="none" xmlns="http://www.w3.org/2000/svg">
<path d="M42.6706 51.0321C26.7861 55.4797 13.4431 66.735 6.00009 81.8026C-3.43985 100.955 -1.71524 121.832 10.9924 140.621C18.6169 151.967 33.4122 164.311 46.2106 170.03C62.2767 177.2 77.8889 176.928 92.9565 169.304C100.218 165.582 104.847 165.582 110.021 169.122C112.109 170.574 119.552 177.382 126.632 184.28C133.621 191.179 140.065 197.26 140.882 197.714C143.152 198.985 149.505 198.713 152.41 197.26C154.861 195.899 164.482 184.644 166.751 180.377C168.385 177.291 168.204 172.662 166.479 168.941C165.299 166.581 162.667 164.493 154.407 159.591C138.795 150.333 128.356 142.618 126.722 139.078C124.998 135.447 124.907 133.359 126.632 126.37C128.356 119.29 128.356 108.579 126.632 102.044C121.186 80.9857 100.4 60.9258 75.3474 52.3936C67.4505 49.7613 50.0229 49.0351 42.6706 51.0321ZM69.9012 59.292C86.9657 63.2858 107.752 79.4426 115.195 94.5102C120.732 105.766 121.549 114.479 118.372 127.187C116.466 134.539 117.373 140.348 121.095 145.25C124.453 149.607 134.892 157.322 149.142 165.854C161.759 173.388 162.031 174.114 155.224 182.647C150.685 188.274 147.508 191.27 145.875 191.27C145.512 191.27 138.432 184.825 130.262 176.837C113.652 160.862 110.203 158.593 101.943 158.593C97.6764 158.593 95.2257 159.228 89.235 162.224C79.3412 166.944 71.8074 168.396 63.3659 166.944C40.7645 163.041 16.8016 142.164 9.90315 120.47C2.27858 96.4164 17.0739 68.3689 41.7629 59.9274C48.9337 57.4766 61.0059 57.2043 69.9012 59.292Z" fill="white"/>
<path d="M46.0289 79.6243C41.2182 80.895 38.132 82.6196 34.7736 86.1596C30.5982 90.5165 29.0552 94.8734 29.0552 102.589C29.0552 108.579 29.3275 109.759 31.869 113.481C41.3997 127.913 61.8227 127.369 70.5365 112.483C73.8041 106.946 73.9857 97.5057 71.0811 91.878C66.1796 82.4381 55.6504 77.2643 46.0289 79.6243ZM60.915 92.2411C68.9026 100.501 64.455 113.39 52.9273 115.569C43.7597 117.293 34.7736 107.672 37.2244 98.6857C40.2197 87.4304 53.0181 83.8904 60.915 92.2411Z" fill="white"/>
<path d="M102.669 91.3334C97.3133 101.863 95.7703 115.115 98.4933 126.37C100.218 133.632 100.127 136.718 98.221 139.985C96.4964 142.708 79.7042 154.781 69.4473 160.499L64.0012 163.585L68.5397 163.858C76.8904 164.402 81.7011 162.678 92.1395 155.325C107.479 144.433 109.567 139.895 106.118 124.736C103.849 114.661 104.303 108.398 108.024 98.8672L110.566 92.3318L108.659 89.7903C107.661 88.4288 106.481 86.9765 106.118 86.5226C105.755 86.0688 104.212 88.2472 102.669 91.3334Z" fill="white"/>
<path d="M117.646 159.319C116.647 160.862 122.275 164.856 131.17 168.85C142.062 173.842 146.964 175.113 152.955 174.75L157.493 174.478L149.324 169.848C131.624 159.773 128.992 158.593 123.364 158.593C120.459 158.593 117.918 158.956 117.646 159.319Z" fill="white"/>
<path d="M153.409 51.5767C143.969 54.0274 133.439 59.292 124.726 65.8273C115.013 73.1796 114.65 73.5427 116.556 76.4473C118.916 79.9872 120.278 80.078 123.909 76.8103C137.796 64.1027 153.045 57.6582 168.839 57.5674C178.007 57.5674 184.633 59.3828 192.076 63.8304C202.877 70.275 210.684 79.8965 214.768 91.9687C221.667 112.119 214.042 133.722 194.073 150.878C187.991 156.142 177.19 162.678 172.198 164.221C169.656 164.947 168.93 165.582 169.293 166.671C169.656 167.488 170.11 169.213 170.382 170.574L170.836 173.025L175.284 171.391C192.53 164.765 209.141 150.333 218.127 134.085C226.931 118.019 227.294 98.3225 219.034 81.5303C214.496 72.2719 201.97 59.5643 193.256 55.2982C181.184 49.489 166.57 48.1274 153.409 51.5767Z" fill="white"/>
<path d="M162.939 79.5334C152.501 82.2565 145.875 90.9703 145.965 101.953C146.056 108.942 147.69 113.027 152.501 117.566C161.941 126.824 176.827 125.916 185.631 115.75C191.713 108.579 191.985 96.3256 186.176 88.338C181.365 81.5303 170.564 77.5365 162.939 79.5334ZM174.104 89.0641C177.916 91.0611 180.367 94.238 181.547 98.5949C185.177 112.21 167.931 121.196 157.947 111.03C152.228 105.039 153.499 94.601 160.579 89.8811C164.119 87.4303 170.291 87.0672 174.104 89.0641Z" fill="white"/>
<path d="M92.1396 179.47C86.6935 185.007 81.4289 189.999 80.5212 190.453C77.9797 191.905 76.0735 190.725 71.2628 184.462C68.812 181.194 66.089 178.562 65.272 178.562C64.4551 178.562 62.4582 178.29 60.9151 178.017C58.6459 177.564 58.1013 177.745 58.1013 178.925C58.1013 181.104 70.2643 196.171 73.0781 197.442C75.8012 198.713 82.5181 198.894 84.2427 197.714C84.8781 197.351 90.8688 191.633 97.4949 185.097C108.478 174.296 109.476 173.116 108.115 171.845C107.298 171.119 105.664 170.302 104.393 169.939C102.396 169.485 100.853 170.756 92.1396 179.47Z" fill="white"/>
<path d="M111 0L115.032 8.45014L124.315 9.67376L117.524 16.1199L119.229 25.3262L111 20.86L102.771 25.3262L104.476 16.1199L97.6852 9.67376L106.968 8.45014L111 0Z" fill="white"/>
<path d="M148.5 23L151.236 28.734L157.535 29.5643L152.927 33.9385L154.084 40.1857L148.5 37.155L142.916 40.1857L144.073 33.9385L139.465 29.5643L145.764 28.734L148.5 23Z" fill="white"/>
<path d="M72.5 23L75.2361 28.734L81.535 29.5643L76.9272 33.9385L78.084 40.1857L72.5 37.155L66.916 40.1857L68.0728 33.9385L63.465 29.5643L69.7639 28.734L72.5 23Z" fill="white"/>
</svg>
