<svg width="390" height="89" viewBox="0 0 390 89" fill="none" xmlns="http://www.w3.org/2000/svg">
<path d="M1.072 86.768C0.986667 85.8293 0.944 84.8907 0.944 83.952C1.02933 83.0133 1.11467 82.0747 1.2 81.136L8.88 79.6C9.73333 74.9067 10.6293 69.488 11.568 63.344C12.592 57.1147 13.5307 50.7147 14.384 44.144C15.3227 37.5733 16.0907 31.3013 16.688 25.328C17.3707 19.3547 17.84 14.2347 18.096 9.96799L11.056 7.28C11.1413 6.34133 11.2693 5.48799 11.44 4.71999C11.696 3.86666 11.9947 3.05599 12.336 2.28799C15.4933 2.11733 19.0347 1.98933 22.96 1.904C26.9707 1.81866 31.024 1.77599 35.12 1.77599C39.3013 1.69066 43.2693 1.64799 47.024 1.64799C50.7787 1.56266 54.064 1.52 56.88 1.52C60.3787 1.52 63.28 1.648 65.584 1.904C67.9733 2.16 69.7653 2.544 70.96 3.056C73.8613 5.36 75.9093 8.21866 77.104 11.632C78.384 14.96 78.9813 18.6293 78.896 22.64C78.896 26.5653 78.256 30.4907 76.976 34.416C75.696 38.256 74.0747 41.6267 72.112 44.528C70.2347 46.32 67.888 48.3253 65.072 50.544C62.256 52.7627 59.3973 54.6827 56.496 56.304C54.448 56.304 52.4427 56.304 50.48 56.304C48.6027 56.2187 46.8107 56.1333 45.104 56.048C43.3973 55.8773 41.776 55.7067 40.24 55.536C40.24 54.4267 40.3253 53.3173 40.496 52.208C40.6667 51.0133 40.88 49.8613 41.136 48.752C43.44 48.4107 45.5733 48.0267 47.536 47.6C49.4987 47.088 51.376 46.3627 53.168 45.424C54.0213 42.608 54.832 39.152 55.6 35.056C56.368 30.96 56.752 26.9067 56.752 22.896C56.752 21.0187 56.624 19.2267 56.368 17.52C56.112 15.728 55.7707 14.1493 55.344 12.784C55.0027 11.3333 54.6187 10.2667 54.192 9.584C52.9973 9.66933 51.8027 9.75466 50.608 9.84C49.4987 9.92533 48.3893 10.0533 47.28 10.224C45.8293 10.3947 44.5493 10.5653 43.44 10.736C42.3307 10.9067 41.5627 11.0773 41.136 11.248C40.5387 14.064 39.856 17.648 39.088 22C38.4053 26.352 37.7227 31.0453 37.04 36.08C36.3573 41.1147 35.6747 46.192 34.992 51.312C34.3947 56.3467 33.84 61.0827 33.328 65.52C32.9013 69.872 32.6027 73.5413 32.432 76.528L43.44 80.24C43.3547 81.1787 43.184 82.16 42.928 83.184C42.7573 84.1227 42.5013 85.0613 42.16 86C37.552 86.0853 32.944 86.128 28.336 86.128C23.728 86.2133 19.1627 86.2987 14.64 86.384C10.1173 86.5547 5.59467 86.6827 1.072 86.768ZM80.2 86.768C80.1147 85.8293 80.072 84.8907 80.072 83.952C80.072 83.0133 80.1147 82.0747 80.2 81.136L87.752 79.6C88.4347 76.016 89.16 71.8773 89.928 67.184C90.7813 62.4907 91.592 57.4987 92.36 52.208C93.128 46.9173 93.8107 41.712 94.408 36.592C95.0907 31.3867 95.6453 26.48 96.072 21.872C96.584 17.264 96.9253 13.296 97.096 9.96799L90.056 7.28C90.1413 6.34133 90.2693 5.48799 90.44 4.71999C90.696 3.86666 90.9947 3.05599 91.336 2.28799C97.48 2.11733 103.624 1.98933 109.768 1.904C115.997 1.73333 122.184 1.60533 128.328 1.52C128.499 2.37333 128.584 3.26933 128.584 4.20799C128.584 5.06133 128.541 5.95733 128.456 6.896L120.648 8.56C119.709 14.3627 118.728 20.464 117.704 26.864C116.765 33.1787 115.869 39.4507 115.016 45.68C114.163 51.9093 113.395 57.84 112.712 63.472C112.115 69.104 111.645 74.0533 111.304 78.32L119.24 81.136C119.155 81.9893 118.984 82.8 118.728 83.568C118.557 84.336 118.301 85.1467 117.96 86C113.693 86.0853 109.427 86.128 105.16 86.128C100.979 86.2133 96.7973 86.2987 92.616 86.384C88.4347 86.5547 84.296 86.6827 80.2 86.768ZM186.106 88.688C181.327 77.936 176.463 67.184 171.514 56.432C166.65 45.68 161.701 34.9707 156.666 24.304C155.983 30.192 155.386 35.8667 154.874 41.328C154.362 46.7893 153.893 51.8667 153.466 56.56C153.125 61.2533 152.826 65.4773 152.57 69.232C152.314 72.9013 152.058 75.888 151.802 78.192L159.738 81.136C159.653 82.672 159.269 84.2933 158.586 86C155.599 86.0853 152.57 86.128 149.498 86.128C146.511 86.2133 143.525 86.2987 140.538 86.384C137.551 86.5547 134.522 86.6827 131.45 86.768C131.365 85.744 131.322 84.7627 131.322 83.824C131.322 82.8 131.365 81.776 131.45 80.752L139.258 78.96C139.941 76.656 140.581 73.7973 141.178 70.384C141.861 66.9707 142.501 63.1733 143.098 58.992C143.781 54.7253 144.378 50.3733 144.89 45.936C145.487 41.4133 145.999 36.976 146.426 32.624C146.938 28.1867 147.365 24.0053 147.706 20.08C148.133 16.1547 148.389 12.7413 148.474 9.84L141.434 7.28C141.519 6.34133 141.647 5.48799 141.818 4.71999C141.989 3.86666 142.245 3.05599 142.586 2.28799C147.706 2.11733 152.783 1.98933 157.818 1.904C162.853 1.81866 167.887 1.69066 172.922 1.52C173.861 4.42133 175.013 7.536 176.378 10.864C177.743 14.192 179.194 17.6053 180.73 21.104C182.266 24.5173 183.845 27.9733 185.466 31.472C187.087 34.9707 188.709 38.384 190.33 41.712C191.951 44.9547 193.53 48.112 195.066 51.184C196.602 54.1707 198.01 56.944 199.29 59.504C199.631 56.6027 200.015 53.6587 200.442 50.672C200.869 47.6 201.21 44.5707 201.466 41.584C201.807 38.512 202.149 35.5253 202.49 32.624C202.917 29.7227 203.301 26.9067 203.642 24.176C203.983 21.4453 204.282 18.8853 204.538 16.496C204.794 14.0213 205.05 11.8027 205.306 9.84L197.626 6.896C197.797 5.36 198.181 3.82399 198.778 2.28799C201.765 2.20266 204.709 2.11733 207.61 2.032C210.597 1.94667 213.541 1.86133 216.442 1.77599C219.429 1.69066 222.373 1.60533 225.274 1.52C225.359 2.544 225.402 3.568 225.402 4.592C225.402 5.53067 225.359 6.512 225.274 7.536L217.85 9.328C216.399 14.6187 215.034 20.1653 213.754 25.968C212.559 31.6853 211.45 37.5307 210.426 43.504C209.402 49.392 208.506 55.2373 207.738 61.04C206.97 66.8427 206.373 72.3893 205.946 77.68L205.69 84.08C205.349 84.4213 204.282 84.848 202.49 85.36C200.783 85.872 198.778 86.384 196.474 86.896C194.255 87.408 192.165 87.8347 190.202 88.176C188.239 88.5173 186.874 88.688 186.106 88.688ZM277.54 87.664L276.516 84.336C273.529 84.9333 270.628 85.488 267.812 86C265.081 86.4267 262.479 86.768 260.004 87.024C257.529 87.28 255.311 87.4507 253.348 87.536C248.911 87.536 245.028 86.6827 241.7 84.976C238.372 83.2693 235.556 80.9227 233.252 77.936C231.033 74.9493 229.369 71.536 228.26 67.696C227.151 63.7707 226.596 59.632 226.596 55.28C226.596 50.3307 227.321 45.2533 228.772 40.048C230.223 34.7573 232.228 29.6373 234.788 24.688C237.348 19.7387 240.249 15.2587 243.492 11.248C246.82 9.19999 250.447 7.40799 254.372 5.87199C258.297 4.33599 262.265 3.14133 266.276 2.28799C270.287 1.34933 274.169 0.837331 277.924 0.751999C279.716 0.751999 281.636 0.837331 283.684 1.008C285.817 1.17866 287.951 1.43466 290.084 1.77599C292.217 2.11733 294.223 2.544 296.1 3.056C298.063 3.48267 299.812 3.99466 301.348 4.592L302.116 6.64L295.332 31.856L282.02 32.624L281.508 11.888C281.081 11.7173 280.655 11.5893 280.228 11.504C279.801 11.3333 279.332 11.248 278.82 11.248C278.308 11.1627 277.711 11.12 277.028 11.12C274.809 11.12 272.292 11.2907 269.476 11.632C266.745 11.9733 264.569 12.4 262.948 12.912C261.327 15.6427 259.791 18.8427 258.34 22.512C256.975 26.096 255.737 29.936 254.628 34.032C253.604 38.0427 252.793 42.0107 252.196 45.936C251.684 49.8613 251.428 53.4453 251.428 56.688C251.428 61.1253 252.025 65.1787 253.22 68.848C254.5 72.432 256.633 75.1627 259.62 77.04C262.692 77.04 265.295 76.8693 267.428 76.528C269.561 76.1013 271.567 75.632 273.444 75.12L275.876 54.512L268.196 50.928L269.604 46.064C273.615 45.9787 277.455 45.8933 281.124 45.808C284.879 45.6373 288.591 45.4667 292.26 45.296C296.015 45.1253 299.769 44.9973 303.524 44.912L303.268 50.928L296.1 53.616C295.332 57.0293 294.564 60.528 293.796 64.112C293.113 67.696 292.516 70.9813 292.004 73.968C291.577 76.6987 291.236 79.0453 290.98 81.008C290.809 82.9707 290.681 84.72 290.596 86.256L277.54 87.664ZM337.973 87.536C333.536 87.536 329.653 86.6827 326.325 84.976C322.997 83.2693 320.181 80.9227 317.877 77.936C315.658 74.9493 313.994 71.536 312.885 67.696C311.776 63.7707 311.221 59.632 311.221 55.28C311.221 50.3307 311.904 45.2533 313.269 40.048C314.72 34.7573 316.725 29.6373 319.285 24.688C321.93 19.7387 324.917 15.2587 328.245 11.248C331.573 9.28533 335.285 7.536 339.381 6C343.562 4.37866 347.744 3.14133 351.925 2.28799C356.192 1.34933 360.202 0.837331 363.957 0.751999C368.309 0.751999 372.106 1.56267 375.349 3.184C378.592 4.80533 381.28 7.06666 383.413 9.96799C385.546 12.8693 387.125 16.1973 388.149 19.952C389.258 23.7067 389.813 27.7173 389.813 31.984C389.813 36.5067 389.173 41.2427 387.893 46.192C386.698 51.056 385.034 55.8347 382.901 60.528C380.768 65.2213 378.336 69.5733 375.605 73.584C372.618 76.144 368.992 78.4907 364.725 80.624C360.544 82.672 356.149 84.2933 351.541 85.488C346.933 86.6827 342.41 87.3653 337.973 87.536ZM343.989 77.936C344.928 77.936 346.037 77.8507 347.317 77.68C348.597 77.424 349.792 77.168 350.901 76.912C352.096 76.5707 352.949 76.3147 353.461 76.144C355.082 73.4133 356.576 70.1707 357.941 66.416C359.306 62.576 360.544 58.5227 361.653 54.256C362.762 49.9893 363.616 45.8507 364.213 41.84C364.81 37.744 365.109 34.0747 365.109 30.832C365.109 27.76 364.853 24.944 364.341 22.384C363.914 19.7387 363.104 17.4347 361.909 15.472C360.8 13.424 359.306 11.8027 357.429 10.608C355.978 10.608 354.272 10.7787 352.309 11.12C350.346 11.4613 348.768 11.9307 347.573 12.528C346.037 15.2587 344.544 18.4587 343.093 22.128C341.728 25.7973 340.49 29.68 339.381 33.776C338.272 37.872 337.418 41.9253 336.821 45.936C336.224 49.8613 335.925 53.4453 335.925 56.688C335.925 59.76 336.181 62.704 336.693 65.52C337.205 68.2507 338.058 70.6827 339.253 72.816C340.448 74.9493 342.026 76.656 343.989 77.936Z" fill="rgb(245, 245, 245)"/>
</svg>
